<svg width="111" height="19" viewBox="0 0 111 19" fill="none" xmlns="http://www.w3.org/2000/svg">
<path d="M12.6211 15.1172C12.6445 15.4297 12.6758 15.7188 12.7148 15.9844C12.7617 16.25 12.7852 16.4961 12.7852 16.7227C12.7852 16.9102 12.7539 17.0938 12.6914 17.2734C12.6367 17.4531 12.5352 17.6094 12.3867 17.7422C12.2461 17.8828 12.0547 17.9961 11.8125 18.082C11.5781 18.168 11.2812 18.2109 10.9219 18.2109C10.4375 18.2109 10.0547 18.1836 9.77344 18.1289C9.5 18.0742 9.29688 17.9805 9.16406 17.8477C9.03125 17.7148 8.94922 17.543 8.91797 17.332C8.88672 17.1211 8.87109 16.8555 8.87109 16.5352C8.87109 16.4023 8.875 16.2656 8.88281 16.125C8.89844 15.9844 8.91406 15.8398 8.92969 15.6914C8.625 15.7773 8.30859 15.8555 7.98047 15.9258C7.66016 15.9883 7.27734 16.0625 6.83203 16.1484C6.67578 16.1719 6.52734 16.2266 6.38672 16.3125C6.24609 16.3984 6.10938 16.4414 5.97656 16.4414C5.89062 16.4414 5.79688 16.4297 5.69531 16.4062C5.60156 16.3828 5.51172 16.3711 5.42578 16.3711C5.22266 16.3711 5.01172 16.4062 4.79297 16.4766C4.58203 16.5469 4.39844 16.582 4.24219 16.582C4.10156 16.582 3.94141 16.5469 3.76172 16.4766C3.58984 16.4062 3.38281 16.3711 3.14062 16.3711H2.73047C2.41797 16.3711 2.10938 16.3008 1.80469 16.1602C1.5 16.0195 1.22656 15.8633 0.984375 15.6914C0.742188 15.5117 0.542969 15.3438 0.386719 15.1875C0.238281 15.0234 0.164062 14.9219 0.164062 14.8828C0.148438 14.8594 0.132812 14.793 0.117188 14.6836C0.101562 14.5742 0.0859375 14.457 0.0703125 14.332C0.0625 14.207 0.0507812 14.0898 0.0351562 13.9805C0.0273438 13.8711 0.0234375 13.8008 0.0234375 13.7695C0.0078125 13.6523 0 13.5352 0 13.418C0 13.3008 0 13.1875 0 13.0781C0 12.8438 0.0078125 12.6211 0.0234375 12.4102C0.0390625 12.1914 0.0585938 11.9727 0.0820312 11.7539C0.105469 11.5352 0.125 11.3125 0.140625 11.0859C0.15625 10.8594 0.164062 10.6211 0.164062 10.3711C0.164062 10.2461 0.160156 10.1211 0.152344 9.99609C0.144531 9.86328 0.140625 9.73047 0.140625 9.59766C0.140625 9.48828 0.148438 9.39844 0.164062 9.32812C0.1875 9.25 0.210938 9.17969 0.234375 9.11719C0.257812 9.05469 0.28125 8.99609 0.304688 8.94141C0.335938 8.87891 0.359375 8.80859 0.375 8.73047C0.414062 8.63672 0.425781 8.53125 0.410156 8.41406C0.402344 8.28906 0.425781 8.17188 0.480469 8.0625C0.496094 8 0.527344 7.9375 0.574219 7.875C0.628906 7.80469 0.6875 7.73047 0.75 7.65234C0.820312 7.57422 0.886719 7.49609 0.949219 7.41797C1.01953 7.33984 1.07812 7.25781 1.125 7.17188C1.19531 7.04688 1.25 6.92578 1.28906 6.80859C1.33594 6.68359 1.37891 6.57031 1.41797 6.46875C1.45703 6.35938 1.5 6.26562 1.54688 6.1875C1.59375 6.10156 1.65234 6.03906 1.72266 6C1.76953 5.96875 1.84766 5.94141 1.95703 5.91797C2.06641 5.89453 2.1875 5.87109 2.32031 5.84766C2.45312 5.81641 2.58984 5.78906 2.73047 5.76562C2.87891 5.74219 3.01562 5.71484 3.14062 5.68359C3.49219 5.59766 3.91797 5.52734 4.41797 5.47266C4.92578 5.41016 5.42188 5.37891 5.90625 5.37891C6.25 5.37891 6.55469 5.41406 6.82031 5.48438C7.08594 5.55469 7.33203 5.63672 7.55859 5.73047C7.79297 5.81641 8.01562 5.90625 8.22656 6C8.44531 6.09375 8.67969 6.16406 8.92969 6.21094C8.96875 5.91406 8.99609 5.55469 9.01172 5.13281C9.03516 4.71094 9.04688 4.27734 9.04688 3.83203C9.04688 3.59766 9.03516 3.36328 9.01172 3.12891C8.99609 2.89453 8.97266 2.66797 8.94141 2.44922C8.91797 2.22266 8.89453 2.01562 8.87109 1.82812C8.85547 1.63281 8.84766 1.46094 8.84766 1.3125C8.84766 1.21094 8.875 1.08594 8.92969 0.9375C8.98438 0.78125 9.05859 0.636719 9.15234 0.503906C9.25391 0.363281 9.37109 0.246094 9.50391 0.152344C9.64453 0.0507812 9.79688 0 9.96094 0C10.0859 0 10.2188 0.0273437 10.3594 0.0820312C10.5 0.128906 10.6289 0.191406 10.7461 0.269531C10.8633 0.339844 10.9609 0.425781 11.0391 0.527344C11.1172 0.621094 11.1562 0.714844 11.1562 0.808594C11.1562 0.910156 11.1406 1.01172 11.1094 1.11328C11.0781 1.21484 11.0625 1.33203 11.0625 1.46484C11.0781 1.58203 11.1211 1.71094 11.1914 1.85156C11.2695 1.99219 11.3203 2.13281 11.3438 2.27344C11.3906 2.45312 11.4141 2.69922 11.4141 3.01172C11.4219 3.32422 11.4258 3.67188 11.4258 4.05469C11.4336 4.42969 11.4453 4.82422 11.4609 5.23828C11.4766 5.65234 11.5195 6.05078 11.5898 6.43359C11.6133 6.57422 11.6523 6.69922 11.707 6.80859C11.7695 6.91016 11.832 7.01562 11.8945 7.125C11.9648 7.22656 12.0234 7.33984 12.0703 7.46484C12.1172 7.58203 12.1406 7.72656 12.1406 7.89844C12.1406 8.03906 12.1328 8.19141 12.1172 8.35547C12.1016 8.51172 12.0938 8.6875 12.0938 8.88281C12.1172 9.33594 12.1484 9.82031 12.1875 10.3359C12.2266 10.8438 12.2695 11.3672 12.3164 11.9062C12.3711 12.4453 12.4219 12.9883 12.4688 13.5352C12.5234 14.0742 12.5742 14.6016 12.6211 15.1172ZM9.14062 9.32812C9.10156 9.28125 9.01953 9.25391 8.89453 9.24609C8.77734 9.23047 8.63672 9.22266 8.47266 9.22266C8.30859 9.21484 8.12891 9.20703 7.93359 9.19922C7.73828 9.18359 7.54688 9.15625 7.35938 9.11719C7.25 9.09375 7.16016 9.06641 7.08984 9.03516C7.02734 9.00391 6.96875 8.97656 6.91406 8.95312C6.85938 8.92188 6.80078 8.89844 6.73828 8.88281C6.67578 8.85938 6.59766 8.84766 6.50391 8.84766C6.20703 8.84766 5.91797 8.86719 5.63672 8.90625C5.36328 8.9375 5.14844 9.00781 4.99219 9.11719C4.91406 9.17969 4.83594 9.29688 4.75781 9.46875C4.6875 9.64062 4.625 9.84766 4.57031 10.0898C4.51562 10.332 4.47266 10.5898 4.44141 10.8633C4.41016 11.1367 4.39453 11.4023 4.39453 11.6602C4.39453 12.168 4.45312 12.5273 4.57031 12.7383C4.69531 12.9492 4.92188 13.0547 5.25 13.0547C5.39844 13.0547 5.55469 13.0391 5.71875 13.0078C5.88281 12.9688 6.04297 12.9297 6.19922 12.8906C6.36328 12.8438 6.51172 12.8008 6.64453 12.7617C6.77734 12.7148 6.89062 12.6836 6.98438 12.668C7.07031 12.6602 7.22266 12.6445 7.44141 12.6211C7.66016 12.5898 7.88281 12.5586 8.10938 12.5273C8.34375 12.4883 8.55469 12.4492 8.74219 12.4102C8.92969 12.3711 9.03906 12.3281 9.07031 12.2812C9.09375 12.2578 9.10938 12.2031 9.11719 12.1172C9.13281 12.0312 9.14062 11.9336 9.14062 11.8242C9.14062 11.7227 9.13672 11.6133 9.12891 11.4961C9.12109 11.3711 9.11328 11.2578 9.10547 11.1562C9.09766 11.0469 9.08984 10.9531 9.08203 10.875C9.07422 10.7969 9.07031 10.7461 9.07031 10.7227C9.07031 10.7148 9.07812 10.6758 9.09375 10.6055C9.10938 10.5352 9.125 10.4492 9.14062 10.3477C9.15625 10.2461 9.17188 10.1367 9.1875 10.0195C9.20312 9.90234 9.21094 9.79297 9.21094 9.69141C9.21094 9.53516 9.1875 9.41406 9.14062 9.32812ZM25.1133 10.2891C25.1289 10.4688 25.1406 10.6523 25.1484 10.8398C25.1562 11.0195 25.1602 11.207 25.1602 11.4023C25.1602 11.957 25.1328 12.5195 25.0781 13.0898C25.0234 13.6523 24.9609 14.1992 24.8906 14.7305C24.8672 14.9023 24.8359 15.0781 24.7969 15.2578C24.7656 15.4297 24.75 15.582 24.75 15.7148C24.75 16.0039 24.7773 16.2852 24.832 16.5586C24.8867 16.8242 24.9141 17.0703 24.9141 17.2969C24.9141 17.3438 24.8828 17.4492 24.8203 17.6133C24.7578 17.7773 24.6562 17.9453 24.5156 18.1172C24.3828 18.2891 24.207 18.4414 23.9883 18.5742C23.7773 18.7148 23.5195 18.7852 23.2148 18.7852C22.8633 18.7852 22.625 18.6836 22.5 18.4805C22.3828 18.2773 22.3242 18.0195 22.3242 17.707C22.3242 17.4883 22.3438 17.2539 22.3828 17.0039C22.4219 16.7461 22.4648 16.4844 22.5117 16.2188C22.332 16.2578 22.1523 16.332 21.9727 16.4414C21.8008 16.5508 21.6367 16.6523 21.4805 16.7461C21.1367 16.9492 20.793 17.1641 20.4492 17.3906C20.1133 17.6172 19.7461 17.8242 19.3477 18.0117C18.9492 18.1992 18.5117 18.3555 18.0352 18.4805C17.5664 18.6055 17.0273 18.668 16.418 18.668C16.4023 18.668 16.3398 18.668 16.2305 18.668C16.1289 18.6758 16.0078 18.6758 15.8672 18.668C15.7266 18.6602 15.5781 18.6406 15.4219 18.6094C15.2734 18.5781 15.1406 18.5273 15.0234 18.457C14.8516 18.2852 14.6836 18.0703 14.5195 17.8125C14.3633 17.5625 14.2227 17.3164 14.0977 17.0742C13.9805 16.8242 13.8867 16.6055 13.8164 16.418C13.7461 16.2305 13.7109 16.1172 13.7109 16.0781C13.6953 16.0391 13.6875 16.0039 13.6875 15.9727C13.6875 15.9336 13.6875 15.8945 13.6875 15.8555C13.6875 15.6914 13.6992 15.5234 13.7227 15.3516C13.7461 15.1719 13.7734 15.0039 13.8047 14.8477C13.8359 14.6836 13.8633 14.5469 13.8867 14.4375C13.9102 14.3203 13.9219 14.2422 13.9219 14.2031C13.9219 14.0078 13.9062 13.8203 13.875 13.6406C13.8438 13.4531 13.8281 13.25 13.8281 13.0312C13.8281 12.9297 13.832 12.8242 13.8398 12.7148C13.8555 12.5977 13.8828 12.4766 13.9219 12.3516C13.9219 12.3438 13.9414 12.293 13.9805 12.1992C14.0195 12.1055 14.0625 12.0039 14.1094 11.8945C14.1641 11.7852 14.2148 11.6797 14.2617 11.5781C14.3164 11.4766 14.3555 11.418 14.3789 11.4023C14.4336 11.3555 14.5078 11.3164 14.6016 11.2852C14.6953 11.2539 14.8008 11.2227 14.918 11.1914C15.0352 11.1602 15.1523 11.1289 15.2695 11.0977C15.3945 11.0664 15.5156 11.0234 15.6328 10.9688C15.8125 10.8828 15.9727 10.7734 16.1133 10.6406C16.2617 10.5078 16.3945 10.418 16.5117 10.3711C16.5898 10.332 16.6953 10.3008 16.8281 10.2773C16.9688 10.2539 17.1133 10.2109 17.2617 10.1484C17.3633 10.1172 17.4883 10.0742 17.6367 10.0195C17.7852 9.95703 17.9414 9.90234 18.1055 9.85547C18.2773 9.80078 18.4492 9.75391 18.6211 9.71484C18.793 9.66797 18.957 9.63672 19.1133 9.62109C19.1836 9.62109 19.2695 9.63281 19.3711 9.65625C19.4805 9.67969 19.6094 9.69141 19.7578 9.69141C19.8672 9.69141 20 9.66797 20.1562 9.62109C20.3125 9.57422 20.5 9.55078 20.7188 9.55078C20.9375 9.55078 21.1484 9.56641 21.3516 9.59766C21.5547 9.62891 21.7109 9.64453 21.8203 9.64453C21.9062 9.64453 21.957 9.62109 21.9727 9.57422C21.9961 9.51953 22.0078 9.45703 22.0078 9.38672C22.0078 9.26953 21.9844 9.13281 21.9375 8.97656C21.8906 8.82031 21.8359 8.66797 21.7734 8.51953C21.7109 8.37109 21.6523 8.24219 21.5977 8.13281C21.543 8.02344 21.5039 7.95312 21.4805 7.92188C21.3633 7.77344 21.2305 7.66016 21.082 7.58203C20.9414 7.50391 20.8125 7.46484 20.6953 7.46484C20.5703 7.46484 20.4453 7.48047 20.3203 7.51172C20.2031 7.54297 20.0703 7.55859 19.9219 7.55859C19.8125 7.55859 19.6992 7.55078 19.582 7.53516C19.4727 7.51953 19.3633 7.51172 19.2539 7.51172C18.9883 7.51172 18.6797 7.57812 18.3281 7.71094C17.9844 7.84375 17.6367 7.99609 17.2852 8.16797C16.9414 8.33984 16.6133 8.50391 16.3008 8.66016C15.9961 8.80859 15.75 8.90625 15.5625 8.95312C15.4609 8.97656 15.3555 9 15.2461 9.02344C15.1367 9.03906 15.0312 9.04688 14.9297 9.04688C14.8672 9.04688 14.7773 9.01562 14.6602 8.95312C14.5508 8.88281 14.4414 8.79688 14.332 8.69531C14.2227 8.59375 14.125 8.48047 14.0391 8.35547C13.9609 8.22266 13.9219 8.09375 13.9219 7.96875C13.9219 7.78125 13.9727 7.62891 14.0742 7.51172C14.1758 7.38672 14.3008 7.28125 14.4492 7.19531C14.5977 7.10938 14.7578 7.03516 14.9297 6.97266C15.1094 6.90234 15.2695 6.82422 15.4102 6.73828C15.5898 6.62891 15.8008 6.5 16.043 6.35156C16.2852 6.20312 16.4922 6.0625 16.6641 5.92969C16.8438 5.78125 16.9727 5.64844 17.0508 5.53125C17.1289 5.40625 17.2227 5.3125 17.332 5.25C17.4414 5.1875 17.6133 5.12891 17.8477 5.07422C18.082 5.01953 18.3008 4.96094 18.5039 4.89844C18.5664 4.875 18.6523 4.83984 18.7617 4.79297C18.8789 4.74609 18.9961 4.70312 19.1133 4.66406C19.2383 4.625 19.3555 4.58984 19.4648 4.55859C19.582 4.52734 19.6719 4.51172 19.7344 4.51172H19.7812C19.9297 4.56641 20.0977 4.60938 20.2852 4.64062C20.4727 4.66406 20.668 4.6875 20.8711 4.71094C21.082 4.73438 21.2891 4.76172 21.4922 4.79297C21.7031 4.81641 21.9023 4.85156 22.0898 4.89844C22.1523 4.91406 22.2109 4.94922 22.2656 5.00391C22.3203 5.05078 22.3789 5.08594 22.4414 5.10938C22.7305 5.19531 22.9727 5.28516 23.168 5.37891C23.3633 5.46484 23.5352 5.60547 23.6836 5.80078C23.832 5.98828 23.9688 6.26172 24.0938 6.62109C24.2266 6.97266 24.3711 7.45312 24.5273 8.0625C24.5586 8.20312 24.6172 8.33203 24.7031 8.44922C24.7891 8.56641 24.8516 8.68359 24.8906 8.80078C24.9531 8.99609 25 9.23438 25.0312 9.51562C25.0703 9.78906 25.0977 10.0469 25.1133 10.2891ZM22.3008 13.418C22.3398 13.3789 22.3633 13.293 22.3711 13.1602C22.3867 13.0195 22.3945 12.8633 22.3945 12.6914C22.3945 12.4883 22.3906 12.3242 22.3828 12.1992C22.375 12.0664 22.3594 11.9648 22.3359 11.8945C22.3125 11.8242 22.2812 11.7773 22.2422 11.7539C22.2031 11.7227 22.1523 11.707 22.0898 11.707C22.043 11.707 22 11.7109 21.9609 11.7188C21.9297 11.7266 21.8984 11.7344 21.8672 11.7422C21.8359 11.7578 21.8047 11.7695 21.7734 11.7773C21.6484 11.7617 21.5312 11.7539 21.4219 11.7539C21.3203 11.7539 21.2148 11.7539 21.1055 11.7539C20.8867 11.7539 20.6836 11.7656 20.4961 11.7891C20.3164 11.8125 20.1367 11.8438 19.957 11.8828C19.7852 11.9219 19.6133 11.9648 19.4414 12.0117C19.2695 12.0586 19.0859 12.1016 18.8906 12.1406C18.6094 12.2109 18.3516 12.2578 18.1172 12.2812C17.8828 12.3047 17.6797 12.3516 17.5078 12.4219C17.3359 12.4922 17.2031 12.6055 17.1094 12.7617C17.0156 12.9102 16.9688 13.1445 16.9688 13.4648C16.9688 13.793 17.0547 14.0156 17.2266 14.1328C17.3984 14.2422 17.6484 14.2969 17.9766 14.2969C18.0781 14.2969 18.1953 14.2812 18.3281 14.25C18.4609 14.2109 18.6016 14.168 18.75 14.1211C18.9062 14.0742 19.0625 14.0273 19.2188 13.9805C19.3828 13.9258 19.5469 13.8789 19.7109 13.8398C19.8281 13.8164 19.9531 13.793 20.0859 13.7695C20.2266 13.7383 20.3633 13.7109 20.4961 13.6875C20.6367 13.6641 20.7656 13.6406 20.8828 13.6172C21.0078 13.5938 21.1133 13.5742 21.1992 13.5586C21.2539 13.5508 21.3398 13.543 21.457 13.5352C21.5742 13.5195 21.6914 13.5078 21.8086 13.5C21.9258 13.4844 22.0312 13.4727 22.125 13.4648C22.2266 13.4492 22.2852 13.4336 22.3008 13.418ZM35.2266 6.32812C35.5625 6.52344 35.7305 6.8125 35.7305 7.19531C35.7305 7.33594 35.7031 7.48438 35.6484 7.64062C35.5938 7.78906 35.5156 7.92969 35.4141 8.0625C35.3203 8.19531 35.2031 8.30469 35.0625 8.39062C34.9219 8.47656 34.7695 8.51953 34.6055 8.51953C34.5273 8.51953 34.4492 8.51562 34.3711 8.50781C34.293 8.5 34.2188 8.49609 34.1484 8.49609C34.0312 8.49609 33.9141 8.50781 33.7969 8.53125C33.6797 8.55469 33.5664 8.57812 33.457 8.60156C33.3555 8.625 33.2617 8.64844 33.1758 8.67188C33.0898 8.69531 33.0195 8.70703 32.9648 8.70703C32.8477 8.70703 32.7188 8.69531 32.5781 8.67188C32.4453 8.64844 32.3125 8.63672 32.1797 8.63672C31.9609 8.63672 31.793 8.66016 31.6758 8.70703C31.5664 8.75391 31.4883 8.82812 31.4414 8.92969C31.3945 9.03125 31.3672 9.16406 31.3594 9.32812C31.3594 9.48438 31.3594 9.67188 31.3594 9.89062C31.3594 10.2578 31.3438 10.6445 31.3125 11.0508C31.2812 11.457 31.2461 11.8672 31.207 12.2812C31.168 12.6875 31.1328 13.0898 31.1016 13.4883C31.0703 13.8789 31.0547 14.2383 31.0547 14.5664C31.0547 14.7695 31.0625 14.9609 31.0781 15.1406C31.0938 15.3203 31.1016 15.4961 31.1016 15.668C31.1016 15.7148 31.0977 15.7695 31.0898 15.832C31.082 15.8867 31.0781 15.9375 31.0781 15.9844C31.0625 16.0391 31.0195 16.1602 30.9492 16.3477C30.8867 16.5352 30.8086 16.7383 30.7148 16.957C30.6211 17.1758 30.5234 17.3789 30.4219 17.5664C30.3281 17.7461 30.25 17.8594 30.1875 17.9062C30.125 17.9453 30.0469 17.9688 29.9531 17.9766C29.8672 17.9922 29.7695 18 29.6602 18C29.1289 18 28.7383 17.9141 28.4883 17.7422C28.2461 17.5781 28.125 17.3203 28.125 16.9688C28.125 16.8203 28.1328 16.668 28.1484 16.5117C28.1641 16.3555 28.1719 16.2109 28.1719 16.0781C28.1719 15.6406 28.1445 15.1523 28.0898 14.6133C28.043 14.0742 27.9844 13.5039 27.9141 12.9023C27.8516 12.293 27.793 11.6602 27.7383 11.0039C27.6914 10.3477 27.668 9.67969 27.668 9C27.4414 9.04688 27.2344 9.07031 27.0469 9.07031C26.8203 9.07031 26.6094 9.04297 26.4141 8.98828C26.2188 8.92578 26.0469 8.83984 25.8984 8.73047C25.7578 8.61328 25.6445 8.47266 25.5586 8.30859C25.4727 8.14453 25.4297 7.95703 25.4297 7.74609C25.4297 7.48047 25.4883 7.27344 25.6055 7.125C25.7227 6.96875 25.875 6.85156 26.0625 6.77344C26.2578 6.6875 26.4805 6.62109 26.7305 6.57422C26.9805 6.52734 27.2383 6.47266 27.5039 6.41016V5.97656C27.5039 5.625 27.4805 5.29688 27.4336 4.99219C27.3867 4.6875 27.332 4.39844 27.2695 4.125C27.2148 3.84375 27.1641 3.57812 27.1172 3.32812C27.0703 3.07031 27.0469 2.81641 27.0469 2.56641C27.0469 2.32422 27.0625 2.12109 27.0938 1.95703C27.1328 1.79297 27.1953 1.65625 27.2812 1.54688C27.3672 1.42969 27.4805 1.33203 27.6211 1.25391C27.7695 1.16797 27.9531 1.08594 28.1719 1.00781C28.2656 0.96875 28.3867 0.929687 28.5352 0.890625C28.6836 0.851563 28.8438 0.816406 29.0156 0.785156C29.1953 0.746094 29.3789 0.71875 29.5664 0.703125C29.7617 0.679688 29.9531 0.667969 30.1406 0.667969C30.3594 0.667969 30.5742 0.6875 30.7852 0.726562C30.9961 0.757813 31.1836 0.839844 31.3477 0.972656C31.5195 1.09766 31.6562 1.28906 31.7578 1.54688C31.8594 1.80469 31.9102 2.16016 31.9102 2.61328C31.9102 2.85547 31.9023 3.10156 31.8867 3.35156C31.8789 3.60156 31.8555 3.80469 31.8164 3.96094C31.793 4.0625 31.7539 4.16016 31.6992 4.25391C31.6445 4.34766 31.5898 4.4375 31.5352 4.52344C31.4883 4.60938 31.4453 4.69531 31.4062 4.78125C31.3672 4.85938 31.3516 4.9375 31.3594 5.01562C31.3594 5.10156 31.3711 5.21094 31.3945 5.34375C31.418 5.46875 31.4297 5.57422 31.4297 5.66016C31.4297 5.78516 31.4062 5.89453 31.3594 5.98828C31.3125 6.08203 31.2891 6.17188 31.2891 6.25781C31.2891 6.36719 31.3477 6.4375 31.4648 6.46875C31.5898 6.49219 31.7656 6.50391 31.9922 6.50391C32.3125 6.50391 32.5938 6.49219 32.8359 6.46875C33.0781 6.4375 33.3008 6.40625 33.5039 6.375C33.7148 6.33594 33.9141 6.30469 34.1016 6.28125C34.2891 6.25 34.4883 6.23438 34.6992 6.23438C34.793 6.23438 34.8867 6.24219 34.9805 6.25781C35.0742 6.26562 35.1562 6.28906 35.2266 6.32812ZM47.1445 10.2891C47.1602 10.4688 47.1719 10.6523 47.1797 10.8398C47.1875 11.0195 47.1914 11.207 47.1914 11.4023C47.1914 11.957 47.1641 12.5195 47.1094 13.0898C47.0547 13.6523 46.9922 14.1992 46.9219 14.7305C46.8984 14.9023 46.8672 15.0781 46.8281 15.2578C46.7969 15.4297 46.7812 15.582 46.7812 15.7148C46.7812 16.0039 46.8086 16.2852 46.8633 16.5586C46.918 16.8242 46.9453 17.0703 46.9453 17.2969C46.9453 17.3438 46.9141 17.4492 46.8516 17.6133C46.7891 17.7773 46.6875 17.9453 46.5469 18.1172C46.4141 18.2891 46.2383 18.4414 46.0195 18.5742C45.8086 18.7148 45.5508 18.7852 45.2461 18.7852C44.8945 18.7852 44.6562 18.6836 44.5312 18.4805C44.4141 18.2773 44.3555 18.0195 44.3555 17.707C44.3555 17.4883 44.375 17.2539 44.4141 17.0039C44.4531 16.7461 44.4961 16.4844 44.543 16.2188C44.3633 16.2578 44.1836 16.332 44.0039 16.4414C43.832 16.5508 43.668 16.6523 43.5117 16.7461C43.168 16.9492 42.8242 17.1641 42.4805 17.3906C42.1445 17.6172 41.7773 17.8242 41.3789 18.0117C40.9805 18.1992 40.543 18.3555 40.0664 18.4805C39.5977 18.6055 39.0586 18.668 38.4492 18.668C38.4336 18.668 38.3711 18.668 38.2617 18.668C38.1602 18.6758 38.0391 18.6758 37.8984 18.668C37.7578 18.6602 37.6094 18.6406 37.4531 18.6094C37.3047 18.5781 37.1719 18.5273 37.0547 18.457C36.8828 18.2852 36.7148 18.0703 36.5508 17.8125C36.3945 17.5625 36.2539 17.3164 36.1289 17.0742C36.0117 16.8242 35.918 16.6055 35.8477 16.418C35.7773 16.2305 35.7422 16.1172 35.7422 16.0781C35.7266 16.0391 35.7188 16.0039 35.7188 15.9727C35.7188 15.9336 35.7188 15.8945 35.7188 15.8555C35.7188 15.6914 35.7305 15.5234 35.7539 15.3516C35.7773 15.1719 35.8047 15.0039 35.8359 14.8477C35.8672 14.6836 35.8945 14.5469 35.918 14.4375C35.9414 14.3203 35.9531 14.2422 35.9531 14.2031C35.9531 14.0078 35.9375 13.8203 35.9062 13.6406C35.875 13.4531 35.8594 13.25 35.8594 13.0312C35.8594 12.9297 35.8633 12.8242 35.8711 12.7148C35.8867 12.5977 35.9141 12.4766 35.9531 12.3516C35.9531 12.3438 35.9727 12.293 36.0117 12.1992C36.0508 12.1055 36.0938 12.0039 36.1406 11.8945C36.1953 11.7852 36.2461 11.6797 36.293 11.5781C36.3477 11.4766 36.3867 11.418 36.4102 11.4023C36.4648 11.3555 36.5391 11.3164 36.6328 11.2852C36.7266 11.2539 36.832 11.2227 36.9492 11.1914C37.0664 11.1602 37.1836 11.1289 37.3008 11.0977C37.4258 11.0664 37.5469 11.0234 37.6641 10.9688C37.8438 10.8828 38.0039 10.7734 38.1445 10.6406C38.293 10.5078 38.4258 10.418 38.543 10.3711C38.6211 10.332 38.7266 10.3008 38.8594 10.2773C39 10.2539 39.1445 10.2109 39.293 10.1484C39.3945 10.1172 39.5195 10.0742 39.668 10.0195C39.8164 9.95703 39.9727 9.90234 40.1367 9.85547C40.3086 9.80078 40.4805 9.75391 40.6523 9.71484C40.8242 9.66797 40.9883 9.63672 41.1445 9.62109C41.2148 9.62109 41.3008 9.63281 41.4023 9.65625C41.5117 9.67969 41.6406 9.69141 41.7891 9.69141C41.8984 9.69141 42.0312 9.66797 42.1875 9.62109C42.3438 9.57422 42.5312 9.55078 42.75 9.55078C42.9688 9.55078 43.1797 9.56641 43.3828 9.59766C43.5859 9.62891 43.7422 9.64453 43.8516 9.64453C43.9375 9.64453 43.9883 9.62109 44.0039 9.57422C44.0273 9.51953 44.0391 9.45703 44.0391 9.38672C44.0391 9.26953 44.0156 9.13281 43.9688 8.97656C43.9219 8.82031 43.8672 8.66797 43.8047 8.51953C43.7422 8.37109 43.6836 8.24219 43.6289 8.13281C43.5742 8.02344 43.5352 7.95312 43.5117 7.92188C43.3945 7.77344 43.2617 7.66016 43.1133 7.58203C42.9727 7.50391 42.8438 7.46484 42.7266 7.46484C42.6016 7.46484 42.4766 7.48047 42.3516 7.51172C42.2344 7.54297 42.1016 7.55859 41.9531 7.55859C41.8438 7.55859 41.7305 7.55078 41.6133 7.53516C41.5039 7.51953 41.3945 7.51172 41.2852 7.51172C41.0195 7.51172 40.7109 7.57812 40.3594 7.71094C40.0156 7.84375 39.668 7.99609 39.3164 8.16797C38.9727 8.33984 38.6445 8.50391 38.332 8.66016C38.0273 8.80859 37.7812 8.90625 37.5938 8.95312C37.4922 8.97656 37.3867 9 37.2773 9.02344C37.168 9.03906 37.0625 9.04688 36.9609 9.04688C36.8984 9.04688 36.8086 9.01562 36.6914 8.95312C36.582 8.88281 36.4727 8.79688 36.3633 8.69531C36.2539 8.59375 36.1562 8.48047 36.0703 8.35547C35.9922 8.22266 35.9531 8.09375 35.9531 7.96875C35.9531 7.78125 36.0039 7.62891 36.1055 7.51172C36.207 7.38672 36.332 7.28125 36.4805 7.19531C36.6289 7.10938 36.7891 7.03516 36.9609 6.97266C37.1406 6.90234 37.3008 6.82422 37.4414 6.73828C37.6211 6.62891 37.832 6.5 38.0742 6.35156C38.3164 6.20312 38.5234 6.0625 38.6953 5.92969C38.875 5.78125 39.0039 5.64844 39.082 5.53125C39.1602 5.40625 39.2539 5.3125 39.3633 5.25C39.4727 5.1875 39.6445 5.12891 39.8789 5.07422C40.1133 5.01953 40.332 4.96094 40.5352 4.89844C40.5977 4.875 40.6836 4.83984 40.793 4.79297C40.9102 4.74609 41.0273 4.70312 41.1445 4.66406C41.2695 4.625 41.3867 4.58984 41.4961 4.55859C41.6133 4.52734 41.7031 4.51172 41.7656 4.51172H41.8125C41.9609 4.56641 42.1289 4.60938 42.3164 4.64062C42.5039 4.66406 42.6992 4.6875 42.9023 4.71094C43.1133 4.73438 43.3203 4.76172 43.5234 4.79297C43.7344 4.81641 43.9336 4.85156 44.1211 4.89844C44.1836 4.91406 44.2422 4.94922 44.2969 5.00391C44.3516 5.05078 44.4102 5.08594 44.4727 5.10938C44.7617 5.19531 45.0039 5.28516 45.1992 5.37891C45.3945 5.46484 45.5664 5.60547 45.7148 5.80078C45.8633 5.98828 46 6.26172 46.125 6.62109C46.2578 6.97266 46.4023 7.45312 46.5586 8.0625C46.5898 8.20312 46.6484 8.33203 46.7344 8.44922C46.8203 8.56641 46.8828 8.68359 46.9219 8.80078C46.9844 8.99609 47.0312 9.23438 47.0625 9.51562C47.1016 9.78906 47.1289 10.0469 47.1445 10.2891ZM44.332 13.418C44.3711 13.3789 44.3945 13.293 44.4023 13.1602C44.418 13.0195 44.4258 12.8633 44.4258 12.6914C44.4258 12.4883 44.4219 12.3242 44.4141 12.1992C44.4062 12.0664 44.3906 11.9648 44.3672 11.8945C44.3438 11.8242 44.3125 11.7773 44.2734 11.7539C44.2344 11.7227 44.1836 11.707 44.1211 11.707C44.0742 11.707 44.0312 11.7109 43.9922 11.7188C43.9609 11.7266 43.9297 11.7344 43.8984 11.7422C43.8672 11.7578 43.8359 11.7695 43.8047 11.7773C43.6797 11.7617 43.5625 11.7539 43.4531 11.7539C43.3516 11.7539 43.2461 11.7539 43.1367 11.7539C42.918 11.7539 42.7148 11.7656 42.5273 11.7891C42.3477 11.8125 42.168 11.8438 41.9883 11.8828C41.8164 11.9219 41.6445 11.9648 41.4727 12.0117C41.3008 12.0586 41.1172 12.1016 40.9219 12.1406C40.6406 12.2109 40.3828 12.2578 40.1484 12.2812C39.9141 12.3047 39.7109 12.3516 39.5391 12.4219C39.3672 12.4922 39.2344 12.6055 39.1406 12.7617C39.0469 12.9102 39 13.1445 39 13.4648C39 13.793 39.0859 14.0156 39.2578 14.1328C39.4297 14.2422 39.6797 14.2969 40.0078 14.2969C40.1094 14.2969 40.2266 14.2812 40.3594 14.25C40.4922 14.2109 40.6328 14.168 40.7812 14.1211C40.9375 14.0742 41.0938 14.0273 41.25 13.9805C41.4141 13.9258 41.5781 13.8789 41.7422 13.8398C41.8594 13.8164 41.9844 13.793 42.1172 13.7695C42.2578 13.7383 42.3945 13.7109 42.5273 13.6875C42.668 13.6641 42.7969 13.6406 42.9141 13.6172C43.0391 13.5938 43.1445 13.5742 43.2305 13.5586C43.2852 13.5508 43.3711 13.543 43.4883 13.5352C43.6055 13.5195 43.7227 13.5078 43.8398 13.5C43.957 13.4844 44.0625 13.4727 44.1562 13.4648C44.2578 13.4492 44.3164 13.4336 44.332 13.418ZM65.7656 13.5352C65.8281 13.7852 65.875 13.9922 65.9062 14.1562C65.9375 14.3203 65.9531 14.4648 65.9531 14.5898C65.9531 14.6992 65.9375 14.793 65.9062 14.8711C65.8828 14.9492 65.8359 15.0273 65.7656 15.1055C65.7031 15.1758 65.6172 15.25 65.5078 15.3281C65.3984 15.4062 65.2617 15.4961 65.0977 15.5977C64.9336 15.6992 64.7969 15.793 64.6875 15.8789C64.5859 15.957 64.4883 16.0273 64.3945 16.0898C64.3008 16.1445 64.2031 16.1875 64.1016 16.2188C64 16.25 63.875 16.2656 63.7266 16.2656C63.4141 16.2656 63.1523 16.168 62.9414 15.9727C62.7305 15.7773 62.625 15.4922 62.625 15.1172C62.625 15.0078 62.6289 14.8789 62.6367 14.7305C62.6445 14.582 62.6484 14.4297 62.6484 14.2734C62.6484 14.0703 62.6367 13.8867 62.6133 13.7227C62.5898 13.5508 62.5352 13.4648 62.4492 13.4648C62.3945 13.4648 62.293 13.4922 62.1445 13.5469C62.0039 13.5938 61.8398 13.6602 61.6523 13.7461C61.4727 13.8242 61.2812 13.9102 61.0781 14.0039C60.875 14.0898 60.6836 14.1758 60.5039 14.2617C60.332 14.3398 60.1836 14.4102 60.0586 14.4727C59.9336 14.5273 59.8594 14.5586 59.8359 14.5664C59.7734 14.582 59.7109 14.5938 59.6484 14.6016C59.5859 14.6094 59.5117 14.6133 59.4258 14.6133C59.3164 14.6133 59.1992 14.6094 59.0742 14.6016C58.9492 14.5938 58.8203 14.5898 58.6875 14.5898C58.4141 14.5898 58.1484 14.6211 57.8906 14.6836C57.6406 14.7383 57.3945 14.8008 57.1523 14.8711C56.918 14.9336 56.6836 14.9961 56.4492 15.0586C56.2227 15.1133 56 15.1406 55.7812 15.1406C55.4766 15.1406 55.2188 15.0586 55.0078 14.8945C54.8047 14.7227 54.6328 14.5039 54.4922 14.2383C54.3516 13.9648 54.2383 13.6602 54.1523 13.3242C54.0742 12.9805 54.0156 12.6367 53.9766 12.293C53.9375 11.9414 53.9102 11.6094 53.8945 11.2969C53.8867 10.9844 53.8828 10.7148 53.8828 10.4883C53.8828 10.3477 53.8984 10.2031 53.9297 10.0547C53.9688 9.90625 54.0078 9.76172 54.0469 9.62109C54.0938 9.48047 54.1328 9.34766 54.1641 9.22266C54.2031 9.08984 54.2227 8.96484 54.2227 8.84766C54.2227 8.66797 54.2148 8.48438 54.1992 8.29688C54.1836 8.10938 54.1758 7.91797 54.1758 7.72266C54.1758 7.43359 54.2266 7.12109 54.3281 6.78516C54.4375 6.44141 54.5469 6.09766 54.6562 5.75391C54.7344 5.51172 54.7969 5.30078 54.8438 5.12109C54.8906 4.93359 54.9531 4.77734 55.0312 4.65234C55.1172 4.52734 55.2305 4.43359 55.3711 4.37109C55.5195 4.30078 55.7266 4.26562 55.9922 4.26562C56.0547 4.26562 56.1602 4.27734 56.3086 4.30078C56.457 4.32422 56.625 4.35547 56.8125 4.39453C57.0078 4.43359 57.207 4.48047 57.4102 4.53516C57.6211 4.58203 57.8164 4.63672 57.9961 4.69922C58.1836 4.76172 58.3438 4.82812 58.4766 4.89844C58.6094 4.96094 58.6953 5.02344 58.7344 5.08594C58.7812 5.17188 58.8125 5.26562 58.8281 5.36719C58.8438 5.46875 58.8516 5.57422 58.8516 5.68359C58.8516 5.84766 58.8359 6.01562 58.8047 6.1875C58.7812 6.35938 58.7539 6.52344 58.7227 6.67969C58.6914 6.83594 58.6602 6.98047 58.6289 7.11328C58.6055 7.24609 58.5938 7.35547 58.5938 7.44141C58.5938 7.52734 58.6055 7.62109 58.6289 7.72266C58.6523 7.82422 58.6641 7.92969 58.6641 8.03906C58.6484 8.15625 58.6172 8.27344 58.5703 8.39062C58.5312 8.50781 58.5039 8.61328 58.4883 8.70703C58.4883 8.87891 58.5039 9.07812 58.5352 9.30469C58.5742 9.53125 58.5938 9.75781 58.5938 9.98438C58.5938 10.1016 58.582 10.2109 58.5586 10.3125C58.543 10.4062 58.5234 10.5 58.5 10.5938C58.4766 10.6797 58.4531 10.7578 58.4297 10.8281C58.4141 10.8984 58.4102 10.9609 58.418 11.0156C58.4258 11.1797 58.4336 11.3125 58.4414 11.4141C58.457 11.5156 58.4805 11.5938 58.5117 11.6484C58.5508 11.7031 58.5977 11.7383 58.6523 11.7539C58.707 11.7695 58.7812 11.7773 58.875 11.7773C59.2031 11.7773 59.5312 11.7695 59.8594 11.7539C60.1875 11.7383 60.5 11.7109 60.7969 11.6719C61.1016 11.6328 61.3789 11.5859 61.6289 11.5312C61.8867 11.4688 62.1055 11.3906 62.2852 11.2969C62.3555 11.2266 62.4023 11.1055 62.4258 10.9336C62.457 10.7617 62.4727 10.582 62.4727 10.3945C62.4805 10.1992 62.4766 10.0195 62.4609 9.85547C62.4531 9.68359 62.4492 9.56641 62.4492 9.50391C62.4492 8.70703 62.4219 8.03516 62.3672 7.48828C62.3125 6.94141 62.2852 6.53125 62.2852 6.25781C62.2852 6.1875 62.3047 6.09375 62.3438 5.97656C62.3828 5.85938 62.4375 5.74609 62.5078 5.63672C62.5859 5.52734 62.6836 5.43359 62.8008 5.35547C62.918 5.26953 63.0586 5.22656 63.2227 5.22656C63.3867 5.22656 63.543 5.25391 63.6914 5.30859C63.8398 5.35547 63.9688 5.42188 64.0781 5.50781C64.1953 5.58594 64.2891 5.67969 64.3594 5.78906C64.4297 5.89062 64.4648 6 64.4648 6.11719C64.4648 6.21094 64.457 6.32031 64.4414 6.44531C64.4258 6.57031 64.418 6.69141 64.418 6.80859C64.418 7.01953 64.4375 7.25391 64.4766 7.51172C64.5156 7.76172 64.5586 8.01172 64.6055 8.26172C64.6602 8.51172 64.707 8.75391 64.7461 8.98828C64.7852 9.22266 64.8047 9.42578 64.8047 9.59766C64.8047 9.77734 64.7891 9.94922 64.7578 10.1133C64.7266 10.2695 64.7109 10.4258 64.7109 10.582C64.7109 10.7695 64.7422 10.9375 64.8047 11.0859C64.8672 11.2344 64.9375 11.375 65.0156 11.5078C65.1016 11.6328 65.1875 11.75 65.2734 11.8594C65.3594 11.9688 65.4258 12.0781 65.4727 12.1875C65.5352 12.3438 65.582 12.5469 65.6133 12.7969C65.6523 13.0469 65.7031 13.293 65.7656 13.5352ZM76.9805 15.5977C76.9492 15.668 76.9023 15.7344 76.8398 15.7969C76.7773 15.8594 76.707 15.9219 76.6289 15.9844C76.5586 16.0469 76.4805 16.1133 76.3945 16.1836C76.3164 16.2461 76.2383 16.3242 76.1602 16.418C76.0273 16.5742 75.918 16.7461 75.832 16.9336C75.7539 17.1211 75.6641 17.2695 75.5625 17.3789C75.5625 17.3867 75.5234 17.4219 75.4453 17.4844C75.375 17.5391 75.293 17.5977 75.1992 17.6602C75.1133 17.7227 75.0352 17.7812 74.9648 17.8359C74.8945 17.8906 74.8672 17.9141 74.8828 17.9062C74.8125 17.9453 74.7344 17.9648 74.6484 17.9648C74.5703 17.9727 74.4805 17.9766 74.3789 17.9766C74.1914 17.9766 73.9883 17.9648 73.7695 17.9414C73.5508 17.918 73.332 17.9062 73.1133 17.9062C72.8945 17.9062 72.6758 17.9414 72.457 18.0117C72.2383 18.082 72.0156 18.1172 71.7891 18.1172C71.5938 18.1172 71.4023 18.1211 71.2148 18.1289C71.0273 18.1367 70.8359 18.1406 70.6406 18.1406C70.1875 18.1406 69.7656 18.1133 69.375 18.0586C68.9922 18.0039 68.6406 17.8945 68.3203 17.7305C68 17.5742 67.7109 17.3555 67.4531 17.0742C67.2031 16.793 66.9922 16.4297 66.8203 15.9844C66.7812 15.8906 66.7539 15.7891 66.7383 15.6797C66.7305 15.5625 66.7227 15.4414 66.7148 15.3164C66.7148 15.1914 66.7109 15.0664 66.7031 14.9414C66.7031 14.8086 66.6953 14.6836 66.6797 14.5664C66.6172 14.2539 66.5547 13.9844 66.4922 13.7578C66.4375 13.5312 66.4102 13.3203 66.4102 13.125C66.4102 12.9141 66.4648 12.7227 66.5742 12.5508C66.6836 12.3789 66.832 12.2344 67.0195 12.1172C67.2148 11.9922 67.4375 11.8984 67.6875 11.8359C67.9453 11.7656 68.2188 11.7305 68.5078 11.7305C68.6641 11.7305 68.793 11.7344 68.8945 11.7422C69.0039 11.75 69.1094 11.7734 69.2109 11.8125C69.3203 11.8438 69.4336 11.9023 69.5508 11.9883C69.6758 12.0664 69.832 12.1797 70.0195 12.3281C70.0898 12.4062 70.1797 12.4805 70.2891 12.5508C70.4062 12.6133 70.4844 12.668 70.5234 12.7148C70.5781 12.7852 70.6172 12.8672 70.6406 12.9609C70.6719 13.0547 70.7031 13.1523 70.7344 13.2539C70.7656 13.3555 70.8047 13.4492 70.8516 13.5352C70.8984 13.6211 70.9648 13.6914 71.0508 13.7461C71.1289 13.832 71.2148 13.8945 71.3086 13.9336C71.4023 13.9727 71.4883 14.0156 71.5664 14.0625C71.6523 14.1016 71.7227 14.1562 71.7773 14.2266C71.832 14.2969 71.8594 14.4023 71.8594 14.543C71.8594 14.6133 71.8555 14.6797 71.8477 14.7422C71.8398 14.8047 71.8359 14.8672 71.8359 14.9297C71.8359 15.0547 71.8672 15.1641 71.9297 15.2578C71.9922 15.3516 72.0742 15.4336 72.1758 15.5039C72.2773 15.5664 72.3867 15.6133 72.5039 15.6445C72.6211 15.6758 72.7344 15.6914 72.8438 15.6914C72.9844 15.6914 73.125 15.668 73.2656 15.6211C73.4141 15.5742 73.5508 15.5039 73.6758 15.4102C73.8008 15.3086 73.9023 15.1875 73.9805 15.0469C74.0586 14.8984 74.0977 14.7305 74.0977 14.543C74.0977 14.3945 74.0664 14.2266 74.0039 14.0391C73.9492 13.8516 73.9219 13.6445 73.9219 13.418C73.9219 13.3086 73.9258 13.1953 73.9336 13.0781C73.9414 12.9531 73.9453 12.8398 73.9453 12.7383C73.9453 12.5586 73.8672 12.4062 73.7109 12.2812C73.5625 12.1484 73.3633 12.0312 73.1133 11.9297C72.8633 11.8281 72.5781 11.7383 72.2578 11.6602C71.9453 11.582 71.625 11.5039 71.2969 11.4258C70.9766 11.3477 70.6641 11.2656 70.3594 11.1797C70.0547 11.0938 69.7891 10.9922 69.5625 10.875C69.4375 10.8125 69.3125 10.7227 69.1875 10.6055C69.0703 10.4805 68.9453 10.3672 68.8125 10.2656C68.6484 10.1406 68.4922 10.0273 68.3438 9.92578C68.1953 9.81641 68.0625 9.6875 67.9453 9.53906C67.8359 9.39062 67.75 9.21094 67.6875 9C67.625 8.78906 67.5938 8.51562 67.5938 8.17969C67.5938 7.57031 67.6758 7.08984 67.8398 6.73828C68.0039 6.37891 68.2383 6.10156 68.543 5.90625C68.8477 5.71094 69.2188 5.57422 69.6562 5.49609C70.0938 5.41797 70.582 5.35156 71.1211 5.29688C71.3633 5.27344 71.6211 5.25 71.8945 5.22656C72.1758 5.19531 72.4531 5.17969 72.7266 5.17969C72.9219 5.17969 73.1562 5.21875 73.4297 5.29688C73.7031 5.375 73.9766 5.49219 74.25 5.64844C74.5312 5.80469 74.7969 6.00391 75.0469 6.24609C75.2969 6.48047 75.4922 6.75781 75.6328 7.07812C75.6719 7.17188 75.7109 7.25391 75.75 7.32422C75.7891 7.38672 75.8203 7.44922 75.8438 7.51172C75.875 7.56641 75.8984 7.625 75.9141 7.6875C75.9297 7.74219 75.9375 7.8125 75.9375 7.89844C75.9062 8.08594 75.8555 8.23828 75.7852 8.35547C75.7227 8.46484 75.6367 8.54688 75.5273 8.60156C75.418 8.65625 75.2852 8.69141 75.1289 8.70703C74.9805 8.72266 74.8047 8.73047 74.6016 8.73047C74.5156 8.73047 74.4375 8.73047 74.3672 8.73047C74.3047 8.73047 74.2617 8.72266 74.2383 8.70703C74.0742 8.67578 73.8945 8.59766 73.6992 8.47266C73.5039 8.34766 73.3047 8.21484 73.1016 8.07422C72.8984 7.93359 72.6992 7.80469 72.5039 7.6875C72.3164 7.5625 72.1523 7.48828 72.0117 7.46484C71.7852 7.41797 71.582 7.39453 71.4023 7.39453C71.043 7.39453 70.7578 7.46875 70.5469 7.61719C70.3359 7.75781 70.2305 7.92969 70.2305 8.13281C70.2305 8.25781 70.293 8.39453 70.418 8.54297C70.5508 8.69141 70.6992 8.83203 70.8633 8.96484C71.0273 9.08984 71.1875 9.19922 71.3438 9.29297C71.5 9.38672 71.6016 9.44141 71.6484 9.45703C71.7109 9.48047 71.7969 9.48828 71.9062 9.48047C72.0234 9.47266 72.1289 9.48828 72.2227 9.52734C72.293 9.55078 72.3555 9.58984 72.4102 9.64453C72.4648 9.69141 72.5312 9.72266 72.6094 9.73828C72.8047 9.80078 73.0117 9.84375 73.2305 9.86719C73.4492 9.88281 73.6562 9.92188 73.8516 9.98438C74.4453 10.1641 74.9219 10.3555 75.2812 10.5586C75.6406 10.7617 75.9258 11.0234 76.1367 11.3438C76.3477 11.6562 76.5039 12.0469 76.6055 12.5156C76.7148 12.9844 76.8125 13.5703 76.8984 14.2734C76.9219 14.4766 76.957 14.6484 77.0039 14.7891C77.0508 14.9219 77.0742 15.0547 77.0742 15.1875C77.0742 15.3125 77.043 15.4492 76.9805 15.5977ZM88.3711 14.8008C88.3867 14.957 88.4023 15.1016 88.418 15.2344C88.4414 15.3672 88.4531 15.4883 88.4531 15.5977C88.4531 15.7227 88.4453 15.8164 88.4297 15.8789C88.4141 15.9414 88.3867 15.9961 88.3477 16.043C88.3164 16.0898 88.2695 16.1406 88.207 16.1953C88.1523 16.25 88.082 16.332 87.9961 16.4414C87.9023 16.5898 87.8086 16.7461 87.7148 16.9102C87.6289 17.0742 87.5234 17.2227 87.3984 17.3555C87.2812 17.4883 87.1406 17.5977 86.9766 17.6836C86.8203 17.7773 86.6289 17.8242 86.4023 17.8242C86.2617 17.8242 86.1094 17.8125 85.9453 17.7891C85.7891 17.7734 85.6289 17.7539 85.4648 17.7305C85.3086 17.707 85.1523 17.6836 84.9961 17.6602C84.8477 17.6445 84.7109 17.6367 84.5859 17.6367C84.0469 17.6367 83.5 17.6289 82.9453 17.6133C82.3984 17.5898 81.8789 17.5195 81.3867 17.4023C81.2227 17.3555 81.0508 17.3164 80.8711 17.2852C80.6914 17.2461 80.5117 17.2031 80.332 17.1562C80.1523 17.1094 79.9805 17.0547 79.8164 16.9922C79.6523 16.9219 79.5117 16.8398 79.3945 16.7461C79.0586 16.4102 78.7891 16.043 78.5859 15.6445C78.3906 15.2461 78.2344 14.7969 78.1172 14.2969C78.0078 13.7969 77.9297 13.2422 77.8828 12.6328C77.8359 12.0234 77.7969 11.3398 77.7656 10.582C77.75 10.3164 77.7227 10.0625 77.6836 9.82031C77.6445 9.57812 77.625 9.39062 77.625 9.25781C77.625 9.19531 77.6523 9.09766 77.707 8.96484C77.7695 8.83203 77.8125 8.70703 77.8359 8.58984C77.875 8.41797 77.8906 8.25 77.8828 8.08594C77.8828 7.91406 77.8906 7.80859 77.9062 7.76953C77.9297 7.71484 77.9766 7.65234 78.0469 7.58203C78.125 7.50391 78.207 7.42188 78.293 7.33594C78.3867 7.25 78.4766 7.16406 78.5625 7.07812C78.6562 6.98438 78.7344 6.89453 78.7969 6.80859C78.8516 6.73047 78.9844 6.63672 79.1953 6.52734C79.4141 6.41016 79.6836 6.28516 80.0039 6.15234C80.3242 6.01953 80.6836 5.89062 81.082 5.76562C81.4805 5.63281 81.8867 5.51562 82.3008 5.41406C82.7227 5.30469 83.1406 5.21875 83.5547 5.15625C83.9766 5.08594 84.3672 5.04688 84.7266 5.03906C84.875 5.03906 85.0391 5.06641 85.2188 5.12109C85.4062 5.17578 85.5898 5.25 85.7695 5.34375C85.957 5.42969 86.1367 5.53125 86.3086 5.64844C86.4805 5.76562 86.625 5.88281 86.7422 6C86.8047 6.0625 86.8633 6.16797 86.918 6.31641C86.9727 6.45703 87.0352 6.57422 87.1055 6.66797C87.2773 6.88672 87.3945 7.05078 87.457 7.16016C87.5273 7.26953 87.5703 7.36719 87.5859 7.45312C87.6094 7.53906 87.6172 7.63281 87.6094 7.73438C87.6016 7.83594 87.6094 7.99219 87.6328 8.20312C87.6484 8.36719 87.6602 8.50391 87.668 8.61328C87.6758 8.72266 87.6797 8.82422 87.6797 8.91797C87.6797 9.01172 87.6797 9.10156 87.6797 9.1875C87.6797 9.27344 87.6797 9.37109 87.6797 9.48047C87.6797 9.70703 87.6211 9.89062 87.5039 10.0312C87.3867 10.1719 87.2266 10.3008 87.0234 10.418C86.8203 10.5352 86.5742 10.6484 86.2852 10.7578C86.0039 10.8672 85.6992 11 85.3711 11.1562C85.0977 11.2891 84.8047 11.3828 84.4922 11.4375C84.1797 11.4922 83.8906 11.5195 83.625 11.5195C83.5859 11.5195 83.5547 11.5195 83.5312 11.5195C83.5078 11.5195 83.4766 11.5117 83.4375 11.4961C83.3828 11.4883 83.2891 11.5039 83.1562 11.543C83.0234 11.582 82.8711 11.6289 82.6992 11.6836C82.5273 11.7305 82.3398 11.7773 82.1367 11.8242C81.9414 11.8633 81.75 11.8828 81.5625 11.8828C81.4375 11.8828 81.3164 11.9023 81.1992 11.9414C81.0898 11.9727 80.9922 12.0156 80.9062 12.0703C80.8203 12.125 80.75 12.1797 80.6953 12.2344C80.6484 12.2891 80.625 12.3398 80.625 12.3867C80.625 12.6602 80.6719 12.8789 80.7656 13.043C80.8672 13.207 80.9766 13.332 81.0938 13.418C81.2344 13.5195 81.3906 13.5898 81.5625 13.6289C81.7578 13.7148 81.9453 13.7734 82.125 13.8047C82.3047 13.8281 82.4844 13.8398 82.6641 13.8398C82.9609 13.8398 83.2695 13.8164 83.5898 13.7695C83.918 13.7227 84.2891 13.6992 84.7031 13.6992C84.8984 13.6992 85.0625 13.7227 85.1953 13.7695C85.3359 13.8164 85.4844 13.8398 85.6406 13.8398C85.8047 13.8398 85.9688 13.8242 86.1328 13.793C86.2969 13.7617 86.4531 13.7266 86.6016 13.6875C86.75 13.6484 86.8906 13.6133 87.0234 13.582C87.1641 13.5508 87.293 13.5352 87.4102 13.5352C87.7148 13.5352 87.9336 13.6406 88.0664 13.8516C88.207 14.0547 88.3086 14.3711 88.3711 14.8008ZM83.8359 9.41016C83.8516 9.37109 83.8633 9.32812 83.8711 9.28125C83.8789 9.23438 83.8828 9.1875 83.8828 9.14062C83.8828 8.90625 83.8594 8.69922 83.8125 8.51953C83.7734 8.33203 83.7227 8.17578 83.6602 8.05078C83.6055 7.91797 83.543 7.82031 83.4727 7.75781C83.4023 7.6875 83.3398 7.65234 83.2852 7.65234C83.1367 7.65234 82.9141 7.68359 82.6172 7.74609C82.3203 7.80078 82.0195 7.87109 81.7148 7.95703C81.4102 8.04297 81.1328 8.13672 80.8828 8.23828C80.6406 8.33984 80.4922 8.43359 80.4375 8.51953C80.3984 8.58203 80.3711 8.67578 80.3555 8.80078C80.3398 8.91797 80.332 9.05469 80.332 9.21094C80.332 9.53906 80.3516 9.79297 80.3906 9.97266C80.4375 10.1523 80.5156 10.2422 80.625 10.2422C80.6953 10.2422 80.7734 10.2305 80.8594 10.207C80.9453 10.1836 81.0273 10.1602 81.1055 10.1367C81.1914 10.1055 81.2656 10.0781 81.3281 10.0547C81.3984 10.0312 81.4531 10.0156 81.4922 10.0078C81.6641 9.97656 81.875 9.95312 82.125 9.9375C82.375 9.92188 82.6172 9.89844 82.8516 9.86719C83.0938 9.82812 83.3047 9.77734 83.4844 9.71484C83.6719 9.64453 83.7891 9.54297 83.8359 9.41016ZM100.125 9.89062C100.117 9.96875 100.094 10.0352 100.055 10.0898C100.023 10.1367 99.9844 10.1953 99.9375 10.2656C99.8984 10.3281 99.8633 10.4062 99.832 10.5C99.8008 10.5938 99.7852 10.7188 99.7852 10.875C99.7852 10.9375 99.7891 10.9922 99.7969 11.0391C99.8047 11.0859 99.8086 11.1406 99.8086 11.2031C99.8086 11.4375 99.7539 11.6211 99.6445 11.7539C99.543 11.8789 99.4023 11.9805 99.2227 12.0586C99.0508 12.1367 98.8477 12.1992 98.6133 12.2461C98.3789 12.2852 98.1367 12.3398 97.8867 12.4102C97.707 12.457 97.5156 12.5117 97.3125 12.5742C97.1094 12.6367 96.9102 12.668 96.7148 12.668C96.3867 12.668 96.1523 12.5742 96.0117 12.3867C95.8789 12.1992 95.793 11.9648 95.7539 11.6836C95.7148 11.3945 95.7031 11.0859 95.7188 10.7578C95.7344 10.4297 95.7305 10.125 95.707 9.84375C95.6914 9.55469 95.6328 9.31641 95.5312 9.12891C95.4375 8.94141 95.2578 8.84766 94.9922 8.84766C94.8828 8.84766 94.7695 8.86719 94.6523 8.90625C94.5352 8.94531 94.4219 8.99219 94.3125 9.04688C94.2109 9.09375 94.1133 9.14453 94.0195 9.19922C93.9336 9.24609 93.8633 9.28125 93.8086 9.30469C93.6914 9.35938 93.5547 9.41797 93.3984 9.48047C93.25 9.53516 93.1055 9.59766 92.9648 9.66797C92.8242 9.73047 92.7031 9.80469 92.6016 9.89062C92.5078 9.96875 92.4609 10.0625 92.4609 10.1719C92.4609 10.3516 92.5 10.582 92.5781 10.8633C92.6641 11.1367 92.7539 11.4141 92.8477 11.6953C92.9414 11.9688 93.0273 12.2148 93.1055 12.4336C93.1914 12.6445 93.2344 12.7773 93.2344 12.832C93.2344 12.8867 93.2227 12.9414 93.1992 12.9961C93.1758 13.043 93.1641 13.1016 93.1641 13.1719C93.1641 13.2812 93.1758 13.3984 93.1992 13.5234C93.2305 13.6484 93.2617 13.7812 93.293 13.9219C93.332 14.0547 93.3672 14.1953 93.3984 14.3438C93.4297 14.4844 93.4453 14.6289 93.4453 14.7773C93.4453 14.8242 93.4414 14.9258 93.4336 15.082C93.4258 15.2305 93.4141 15.3945 93.3984 15.5742C93.3828 15.7461 93.3594 15.9141 93.3281 16.0781C93.3047 16.2344 93.2734 16.3477 93.2344 16.418C93.1953 16.4805 93.1484 16.5273 93.0938 16.5586C93.0391 16.5898 92.9805 16.6172 92.918 16.6406C92.8555 16.6562 92.7891 16.6758 92.7188 16.6992C92.6484 16.7148 92.5742 16.7461 92.4961 16.793C92.3242 16.9023 92.1992 17.0039 92.1211 17.0977C92.043 17.1836 91.9648 17.2617 91.8867 17.332C91.8164 17.3945 91.7227 17.4453 91.6055 17.4844C91.4961 17.5234 91.3203 17.543 91.0781 17.543C90.7422 17.543 90.4609 17.5039 90.2344 17.4258C90.0078 17.3398 89.8242 17.2109 89.6836 17.0391C89.543 16.8594 89.4414 16.6328 89.3789 16.3594C89.3242 16.0859 89.2969 15.7617 89.2969 15.3867C89.2969 15.1289 89.3164 14.875 89.3555 14.625C89.4023 14.3672 89.4531 14.1094 89.5078 13.8516C89.5703 13.5938 89.6289 13.3359 89.6836 13.0781C89.7461 12.8125 89.793 12.5391 89.8242 12.2578C89.8633 11.8828 89.8945 11.4805 89.918 11.0508C89.9492 10.6133 89.9648 10.207 89.9648 9.83203C89.9648 9.51953 89.9414 9.16797 89.8945 8.77734C89.8789 8.68359 89.8516 8.58984 89.8125 8.49609C89.7734 8.40234 89.7539 8.3125 89.7539 8.22656C89.7539 8.10938 89.7656 7.98438 89.7891 7.85156C89.8203 7.71875 89.8516 7.58594 89.8828 7.45312C89.9219 7.32031 89.957 7.1875 89.9883 7.05469C90.0195 6.91406 90.0391 6.77734 90.0469 6.64453C90.0469 6.51172 90.0273 6.40625 89.9883 6.32812C89.957 6.24219 89.9414 6.15625 89.9414 6.07031C89.9414 5.85156 89.9844 5.68359 90.0703 5.56641C90.1562 5.44141 90.2461 5.35547 90.3398 5.30859C90.4336 5.25391 90.5156 5.22266 90.5859 5.21484C90.6562 5.20703 90.6758 5.20312 90.6445 5.20312C90.9414 5.20312 91.1719 5.26562 91.3359 5.39062C91.5078 5.50781 91.6328 5.65625 91.7109 5.83594C91.7969 6.01562 91.8516 6.21094 91.875 6.42188C91.8984 6.625 91.918 6.81641 91.9336 6.99609C91.9492 7.17578 91.9688 7.32812 91.9922 7.45312C92.0234 7.57031 92.0859 7.62891 92.1797 7.62891C92.2422 7.62891 92.3203 7.60156 92.4141 7.54688C92.5156 7.49219 92.6094 7.43359 92.6953 7.37109C92.7812 7.30859 92.8477 7.25781 92.8945 7.21875C92.9414 7.17188 92.9492 7.16406 92.918 7.19531L92.8945 7.21875C92.9023 7.21875 92.9102 7.21484 92.918 7.20703C92.9414 7.18359 92.9688 7.16406 93 7.14844C92.9688 7.16406 92.9531 7.17188 92.9531 7.17188H92.9414C93.043 7.09375 93.1445 7.01562 93.2461 6.9375C93.332 6.875 93.4258 6.80859 93.5273 6.73828C93.6289 6.66016 93.7227 6.59766 93.8086 6.55078C93.9414 6.46484 94.0898 6.40625 94.2539 6.375C94.418 6.33594 94.5664 6.27344 94.6992 6.1875C94.8164 6.10156 94.9336 6.00781 95.0508 5.90625C95.168 5.80469 95.2734 5.72266 95.3672 5.66016C95.4609 5.62109 95.5742 5.58203 95.707 5.54297C95.8477 5.50391 95.9961 5.47266 96.1523 5.44922C96.3086 5.41797 96.4609 5.39453 96.6094 5.37891C96.7578 5.35547 96.8906 5.34375 97.0078 5.34375C97.1172 5.34375 97.2109 5.36328 97.2891 5.40234C97.3672 5.43359 97.4414 5.47656 97.5117 5.53125C97.582 5.58594 97.6562 5.64062 97.7344 5.69531C97.8203 5.75 97.9219 5.79297 98.0391 5.82422C98.1875 5.87109 98.3594 5.90625 98.5547 5.92969C98.75 5.94531 98.9297 5.98828 99.0938 6.05859C99.2656 6.12891 99.4102 6.24609 99.5273 6.41016C99.6445 6.56641 99.6992 6.8125 99.6914 7.14844C99.6914 7.29688 99.707 7.42969 99.7383 7.54688C99.7695 7.66406 99.8008 7.76953 99.832 7.86328C99.8711 7.95703 99.9062 8.04688 99.9375 8.13281C99.9688 8.21875 99.9844 8.30859 99.9844 8.40234C99.9844 8.48828 99.9766 8.58203 99.9609 8.68359C99.9531 8.77734 99.9492 8.875 99.9492 8.97656C99.9492 9.13281 99.9766 9.30078 100.031 9.48047C100.094 9.65234 100.125 9.78906 100.125 9.89062ZM110.824 15.5977C110.793 15.668 110.746 15.7344 110.684 15.7969C110.621 15.8594 110.551 15.9219 110.473 15.9844C110.402 16.0469 110.324 16.1133 110.238 16.1836C110.16 16.2461 110.082 16.3242 110.004 16.418C109.871 16.5742 109.762 16.7461 109.676 16.9336C109.598 17.1211 109.508 17.2695 109.406 17.3789C109.406 17.3867 109.367 17.4219 109.289 17.4844C109.219 17.5391 109.137 17.5977 109.043 17.6602C108.957 17.7227 108.879 17.7812 108.809 17.8359C108.738 17.8906 108.711 17.9141 108.727 17.9062C108.656 17.9453 108.578 17.9648 108.492 17.9648C108.414 17.9727 108.324 17.9766 108.223 17.9766C108.035 17.9766 107.832 17.9648 107.613 17.9414C107.395 17.918 107.176 17.9062 106.957 17.9062C106.738 17.9062 106.52 17.9414 106.301 18.0117C106.082 18.082 105.859 18.1172 105.633 18.1172C105.438 18.1172 105.246 18.1211 105.059 18.1289C104.871 18.1367 104.68 18.1406 104.484 18.1406C104.031 18.1406 103.609 18.1133 103.219 18.0586C102.836 18.0039 102.484 17.8945 102.164 17.7305C101.844 17.5742 101.555 17.3555 101.297 17.0742C101.047 16.793 100.836 16.4297 100.664 15.9844C100.625 15.8906 100.598 15.7891 100.582 15.6797C100.574 15.5625 100.566 15.4414 100.559 15.3164C100.559 15.1914 100.555 15.0664 100.547 14.9414C100.547 14.8086 100.539 14.6836 100.523 14.5664C100.461 14.2539 100.398 13.9844 100.336 13.7578C100.281 13.5312 100.254 13.3203 100.254 13.125C100.254 12.9141 100.309 12.7227 100.418 12.5508C100.527 12.3789 100.676 12.2344 100.863 12.1172C101.059 11.9922 101.281 11.8984 101.531 11.8359C101.789 11.7656 102.062 11.7305 102.352 11.7305C102.508 11.7305 102.637 11.7344 102.738 11.7422C102.848 11.75 102.953 11.7734 103.055 11.8125C103.164 11.8438 103.277 11.9023 103.395 11.9883C103.52 12.0664 103.676 12.1797 103.863 12.3281C103.934 12.4062 104.023 12.4805 104.133 12.5508C104.25 12.6133 104.328 12.668 104.367 12.7148C104.422 12.7852 104.461 12.8672 104.484 12.9609C104.516 13.0547 104.547 13.1523 104.578 13.2539C104.609 13.3555 104.648 13.4492 104.695 13.5352C104.742 13.6211 104.809 13.6914 104.895 13.7461C104.973 13.832 105.059 13.8945 105.152 13.9336C105.246 13.9727 105.332 14.0156 105.41 14.0625C105.496 14.1016 105.566 14.1562 105.621 14.2266C105.676 14.2969 105.703 14.4023 105.703 14.543C105.703 14.6133 105.699 14.6797 105.691 14.7422C105.684 14.8047 105.68 14.8672 105.68 14.9297C105.68 15.0547 105.711 15.1641 105.773 15.2578C105.836 15.3516 105.918 15.4336 106.02 15.5039C106.121 15.5664 106.23 15.6133 106.348 15.6445C106.465 15.6758 106.578 15.6914 106.688 15.6914C106.828 15.6914 106.969 15.668 107.109 15.6211C107.258 15.5742 107.395 15.5039 107.52 15.4102C107.645 15.3086 107.746 15.1875 107.824 15.0469C107.902 14.8984 107.941 14.7305 107.941 14.543C107.941 14.3945 107.91 14.2266 107.848 14.0391C107.793 13.8516 107.766 13.6445 107.766 13.418C107.766 13.3086 107.77 13.1953 107.777 13.0781C107.785 12.9531 107.789 12.8398 107.789 12.7383C107.789 12.5586 107.711 12.4062 107.555 12.2812C107.406 12.1484 107.207 12.0312 106.957 11.9297C106.707 11.8281 106.422 11.7383 106.102 11.6602C105.789 11.582 105.469 11.5039 105.141 11.4258C104.82 11.3477 104.508 11.2656 104.203 11.1797C103.898 11.0938 103.633 10.9922 103.406 10.875C103.281 10.8125 103.156 10.7227 103.031 10.6055C102.914 10.4805 102.789 10.3672 102.656 10.2656C102.492 10.1406 102.336 10.0273 102.188 9.92578C102.039 9.81641 101.906 9.6875 101.789 9.53906C101.68 9.39062 101.594 9.21094 101.531 9C101.469 8.78906 101.438 8.51562 101.438 8.17969C101.438 7.57031 101.52 7.08984 101.684 6.73828C101.848 6.37891 102.082 6.10156 102.387 5.90625C102.691 5.71094 103.062 5.57422 103.5 5.49609C103.938 5.41797 104.426 5.35156 104.965 5.29688C105.207 5.27344 105.465 5.25 105.738 5.22656C106.02 5.19531 106.297 5.17969 106.57 5.17969C106.766 5.17969 107 5.21875 107.273 5.29688C107.547 5.375 107.82 5.49219 108.094 5.64844C108.375 5.80469 108.641 6.00391 108.891 6.24609C109.141 6.48047 109.336 6.75781 109.477 7.07812C109.516 7.17188 109.555 7.25391 109.594 7.32422C109.633 7.38672 109.664 7.44922 109.688 7.51172C109.719 7.56641 109.742 7.625 109.758 7.6875C109.773 7.74219 109.781 7.8125 109.781 7.89844C109.75 8.08594 109.699 8.23828 109.629 8.35547C109.566 8.46484 109.48 8.54688 109.371 8.60156C109.262 8.65625 109.129 8.69141 108.973 8.70703C108.824 8.72266 108.648 8.73047 108.445 8.73047C108.359 8.73047 108.281 8.73047 108.211 8.73047C108.148 8.73047 108.105 8.72266 108.082 8.70703C107.918 8.67578 107.738 8.59766 107.543 8.47266C107.348 8.34766 107.148 8.21484 106.945 8.07422C106.742 7.93359 106.543 7.80469 106.348 7.6875C106.16 7.5625 105.996 7.48828 105.855 7.46484C105.629 7.41797 105.426 7.39453 105.246 7.39453C104.887 7.39453 104.602 7.46875 104.391 7.61719C104.18 7.75781 104.074 7.92969 104.074 8.13281C104.074 8.25781 104.137 8.39453 104.262 8.54297C104.395 8.69141 104.543 8.83203 104.707 8.96484C104.871 9.08984 105.031 9.19922 105.188 9.29297C105.344 9.38672 105.445 9.44141 105.492 9.45703C105.555 9.48047 105.641 9.48828 105.75 9.48047C105.867 9.47266 105.973 9.48828 106.066 9.52734C106.137 9.55078 106.199 9.58984 106.254 9.64453C106.309 9.69141 106.375 9.72266 106.453 9.73828C106.648 9.80078 106.855 9.84375 107.074 9.86719C107.293 9.88281 107.5 9.92188 107.695 9.98438C108.289 10.1641 108.766 10.3555 109.125 10.5586C109.484 10.7617 109.77 11.0234 109.98 11.3438C110.191 11.6562 110.348 12.0469 110.449 12.5156C110.559 12.9844 110.656 13.5703 110.742 14.2734C110.766 14.4766 110.801 14.6484 110.848 14.7891C110.895 14.9219 110.918 15.0547 110.918 15.1875C110.918 15.3125 110.887 15.4492 110.824 15.5977Z" fill="#541100"/>
</svg>
