<svg width="106" height="43" viewBox="0 0 106 43" fill="none" xmlns="http://www.w3.org/2000/svg">
<path d="M7.97656 29H1.78906V11.5391H8.02344C9.78125 11.5391 11.293 11.8906 12.5586 12.5938C13.8242 13.2891 14.7969 14.2891 15.4766 15.5938C16.1641 16.8906 16.5078 18.4453 16.5078 20.2578C16.5078 22.0781 16.1641 23.6406 15.4766 24.9453C14.7969 26.25 13.8203 27.2539 12.5469 27.957C11.2734 28.6523 9.75 29 7.97656 29ZM5.46875 25.8359H7.8125C9.46094 25.8359 10.7109 25.3945 11.5625 24.5117C12.4141 23.6289 12.8398 22.2109 12.8398 20.2578C12.8398 18.3203 12.4141 16.9102 11.5625 16.0273C10.7109 15.1445 9.46094 14.7031 7.8125 14.7031H5.46875V25.8359ZM22.918 29.2461C21.668 29.2461 20.6289 28.9219 19.8008 28.2734C18.9805 27.6172 18.5703 26.6406 18.5703 25.3438C18.5703 24.3672 18.7969 23.6016 19.25 23.0469C19.7109 22.4844 20.3164 22.0742 21.0664 21.8164C21.8164 21.5508 22.6211 21.3789 23.4805 21.3008C24.6211 21.1914 25.4336 21.0781 25.918 20.9609C26.4102 20.8359 26.6562 20.5625 26.6562 20.1406V20.082C26.6562 19.543 26.4844 19.125 26.1406 18.8281C25.7969 18.5312 25.3008 18.3828 24.6523 18.3828C24.0039 18.3828 23.4727 18.5234 23.0586 18.8047C22.6523 19.0859 22.3828 19.4453 22.25 19.8828L18.9453 19.3555C19.2578 18.2148 19.9141 17.3281 20.9141 16.6953C21.9219 16.0547 23.1719 15.7344 24.6641 15.7344C25.6328 15.7344 26.543 15.8867 27.3945 16.1914C28.2539 16.4961 28.9492 16.9766 29.4805 17.6328C30.0117 18.2812 30.2773 19.125 30.2773 20.1641V29H26.8438V27.1719H26.7383C26.418 27.7891 25.9414 28.2891 25.3086 28.6719C24.6836 29.0547 23.8867 29.2461 22.918 29.2461ZM22.0273 25.2266C22.0273 25.7266 22.207 26.1055 22.5664 26.3633C22.9336 26.6133 23.3945 26.7383 23.9492 26.7383C24.7461 26.7383 25.3984 26.5078 25.9062 26.0469C26.4219 25.5859 26.6797 25.0117 26.6797 24.3242V22.9297C26.5391 23.0234 26.3164 23.1094 26.0117 23.1875C25.7148 23.2656 25.3984 23.332 25.0625 23.3867C24.7266 23.4336 24.4258 23.4766 24.1602 23.5156C23.5195 23.6094 23.0039 23.793 22.6133 24.0664C22.2227 24.332 22.0273 24.7188 22.0273 25.2266ZM40.1562 15.8984V18.6406H37.6719V24.9688C37.6719 25.8203 38.0859 26.2461 38.9141 26.2461C39.0547 26.2461 39.207 26.2344 39.3711 26.2109C39.543 26.1875 39.6914 26.1602 39.8164 26.1289L40.3906 28.8477C39.6172 29.0742 38.8672 29.1875 38.1406 29.1875C36.8438 29.1875 35.8359 28.8594 35.1172 28.2031C34.4062 27.5469 34.0508 26.6289 34.0508 25.4492V18.6406H32.2695V15.8984H34.0508V12.7812H37.6719V15.8984H40.1562ZM46.2617 29.2461C45.0117 29.2461 43.9727 28.9219 43.1445 28.2734C42.3242 27.6172 41.9141 26.6406 41.9141 25.3438C41.9141 24.3672 42.1406 23.6016 42.5938 23.0469C43.0547 22.4844 43.6602 22.0742 44.4102 21.8164C45.1602 21.5508 45.9648 21.3789 46.8242 21.3008C47.9648 21.1914 48.7773 21.0781 49.2617 20.9609C49.7539 20.8359 50 20.5625 50 20.1406V20.082C50 19.543 49.8281 19.125 49.4844 18.8281C49.1406 18.5312 48.6445 18.3828 47.9961 18.3828C47.3477 18.3828 46.8164 18.5234 46.4023 18.8047C45.9961 19.0859 45.7266 19.4453 45.5938 19.8828L42.2891 19.3555C42.6016 18.2148 43.2578 17.3281 44.2578 16.6953C45.2656 16.0547 46.5156 15.7344 48.0078 15.7344C48.9766 15.7344 49.8867 15.8867 50.7383 16.1914C51.5977 16.4961 52.293 16.9766 52.8242 17.6328C53.3555 18.2812 53.6211 19.125 53.6211 20.1641V29H50.1875V27.1719H50.082C49.7617 27.7891 49.2852 28.2891 48.6523 28.6719C48.0273 29.0547 47.2305 29.2461 46.2617 29.2461ZM45.3711 25.2266C45.3711 25.7266 45.5508 26.1055 45.9102 26.3633C46.2773 26.6133 46.7383 26.7383 47.293 26.7383C48.0898 26.7383 48.7422 26.5078 49.25 26.0469C49.7656 25.5859 50.0234 25.0117 50.0234 24.3242V22.9297C49.8828 23.0234 49.6602 23.1094 49.3555 23.1875C49.0586 23.2656 48.7422 23.332 48.4062 23.3867C48.0703 23.4336 47.7695 23.4766 47.5039 23.5156C46.8633 23.6094 46.3477 23.793 45.957 24.0664C45.5664 24.332 45.3711 24.7188 45.3711 25.2266ZM56.5391 11.5391H60.1719V20.8789H60.3711L64.5547 15.8984H68.7266L63.875 21.582L68.9609 29H64.7188L61.1562 23.7148L60.1719 24.8281V29H56.5391V11.5391ZM76.4141 29.2578C75.0938 29.2578 73.9492 28.9766 72.9805 28.4141C72.0195 27.8438 71.2773 27.0547 70.7539 26.0469C70.2383 25.0312 69.9805 23.8516 69.9805 22.5078C69.9805 21.1562 70.2383 19.9727 70.7539 18.957C71.2773 17.9414 72.0195 17.1523 72.9805 16.5898C73.9492 16.0195 75.0938 15.7344 76.4141 15.7344C77.7422 15.7344 78.8867 16.0195 79.8477 16.5898C80.8164 17.1523 81.5586 17.9414 82.0742 18.957C82.5977 19.9727 82.8594 21.1562 82.8594 22.5078C82.8594 23.8516 82.5977 25.0312 82.0742 26.0469C81.5586 27.0547 80.8164 27.8438 79.8477 28.4141C78.8867 28.9766 77.7422 29.2578 76.4141 29.2578ZM73.6719 22.4844C73.6719 23.625 73.9023 24.5664 74.3633 25.3086C74.8242 26.0508 75.5117 26.4219 76.4258 26.4219C77.332 26.4219 78.0156 26.0508 78.4766 25.3086C78.9375 24.5664 79.168 23.625 79.168 22.4844C79.168 21.3438 78.9375 20.4062 78.4766 19.6719C78.0156 18.9375 77.332 18.5703 76.4258 18.5703C75.5117 18.5703 74.8242 18.9375 74.3633 19.6719C73.9023 20.4062 73.6719 21.3438 73.6719 22.4844ZM85.25 29V15.8984H88.6953V18.2305H88.8594C89.1328 17.457 89.5898 16.8477 90.2305 16.4023C90.8711 15.957 91.6328 15.7344 92.5156 15.7344C93.4141 15.7344 94.1758 15.9609 94.8008 16.4141C95.4336 16.8594 95.8516 17.4648 96.0547 18.2305H96.1953C96.4688 17.4727 96.9531 16.8672 97.6484 16.4141C98.3516 15.9609 99.1836 15.7344 100.145 15.7344C101.363 15.7344 102.355 16.1211 103.121 16.8945C103.895 17.668 104.281 18.7656 104.281 20.1875V29H100.648V20.9141C100.648 20.1797 100.453 19.6328 100.062 19.2734C99.6797 18.9141 99.1992 18.7344 98.6211 18.7344C97.9648 18.7344 97.4492 18.9453 97.0742 19.3672C96.707 19.7812 96.5234 20.3281 96.5234 21.0078V29H92.9961V20.8203C92.9961 20.1875 92.8125 19.6836 92.4453 19.3086C92.0859 18.9258 91.6094 18.7344 91.0156 18.7344C90.4062 18.7344 89.8984 18.957 89.4922 19.4023C89.0859 19.8398 88.8828 20.4219 88.8828 21.1484V29H85.25Z" fill="#421F16"/>
<circle cx="58.5" cy="4.9873" r="2.5" fill="#BC482A"/>
</svg>
