<svg width="81" height="42" viewBox="0 0 81 42" fill="none" xmlns="http://www.w3.org/2000/svg">
<path d="M14 21V27H2V21M14 21H2M14 21V15H2V21M4.66533 18H4.668V18.0027H4.66533V18ZM4.66533 24H4.668V24.0027H4.66533V24Z" stroke="#6D65AD" stroke-width="1.33333"/>
<path d="M22.3772 30.15C21.7172 30.15 21.2572 29.96 20.9972 29.58C20.7572 29.2 20.6372 28.74 20.6372 28.2C20.6372 27.62 20.7272 27.01 20.9072 26.37C21.1072 25.73 21.3072 25.21 21.5072 24.81C22.2072 23.35 23.1872 22.27 24.4472 21.57C25.7272 20.87 27.0372 20.57 28.3772 20.67C28.8372 19.73 29.3172 18.75 29.8172 17.73C30.3372 16.69 30.8172 15.71 31.2572 14.79C31.7172 13.85 32.1072 13.05 32.4272 12.39C32.7672 11.71 32.9872 11.26 33.0872 11.04C33.4272 10.96 33.7972 10.87 34.1972 10.77C34.5972 10.65 34.9572 10.52 35.2772 10.38C35.0772 10.72 34.7572 11.25 34.3172 11.97C33.8972 12.69 33.4072 13.54 32.8472 14.52C32.3072 15.48 31.7372 16.51 31.1372 17.61C30.5372 18.71 29.9572 19.82 29.3972 20.94V21C29.3972 21.08 29.3472 21.15 29.2472 21.21C28.7472 22.23 28.2872 23.21 27.8672 24.15C27.4672 25.09 27.1372 25.95 26.8772 26.73C26.6372 27.49 26.5172 28.12 26.5172 28.62C26.5172 29.18 26.7072 29.46 27.0872 29.46C27.3072 29.46 27.5572 29.37 27.8372 29.19C28.1172 29.01 28.3872 28.79 28.6472 28.53C29.2872 27.89 29.8372 27.17 30.2972 26.37C30.7772 25.57 31.2272 24.77 31.6472 23.97C31.6472 23.93 31.6672 23.91 31.7072 23.91C31.8472 23.91 31.9172 23.99 31.9172 24.15C31.9172 24.15 31.8672 24.24 31.7672 24.42C31.6672 24.6 31.6072 24.7 31.5872 24.72C31.2272 25.42 30.8572 26.09 30.4772 26.73C30.0972 27.37 29.6372 27.98 29.0972 28.56C28.7972 28.88 28.4072 29.22 27.9272 29.58C27.4672 29.94 27.0072 30.12 26.5472 30.12C26.0872 30.12 25.7672 29.94 25.5872 29.58C25.4272 29.22 25.3472 28.82 25.3472 28.38C25.3472 28.1 25.3672 27.83 25.4072 27.57C25.4472 27.31 25.4972 27.08 25.5572 26.88C25.4172 27.24 25.1672 27.68 24.8072 28.2C24.4672 28.72 24.0772 29.18 23.6372 29.58C23.2172 29.96 22.7972 30.15 22.3772 30.15ZM22.7372 29.7C23.0172 29.7 23.3272 29.51 23.6672 29.13C24.0272 28.75 24.3772 28.29 24.7172 27.75C25.0772 27.19 25.3972 26.65 25.6772 26.13C25.9572 25.59 26.1672 25.18 26.3072 24.9L28.1972 21.06C27.2172 21.08 26.3372 21.35 25.5572 21.87C24.7972 22.39 24.1472 23.05 23.6072 23.85C23.0672 24.63 22.6572 25.43 22.3772 26.25C22.0972 27.07 21.9572 27.78 21.9572 28.38C21.9572 28.78 22.0172 29.1 22.1372 29.34C22.2772 29.58 22.4772 29.7 22.7372 29.7ZM31.9573 30.15C31.2773 30.15 30.8073 29.96 30.5473 29.58C30.3073 29.2 30.1873 28.73 30.1873 28.17C30.1873 27.59 30.2873 26.98 30.4873 26.34C30.6873 25.7 30.8773 25.19 31.0573 24.81C31.6973 23.47 32.5873 22.45 33.7273 21.75C34.8873 21.03 36.0773 20.67 37.2973 20.67C37.4573 20.67 37.6173 20.67 37.7773 20.67C37.9573 20.67 38.1273 20.69 38.2873 20.73C38.6873 20.79 38.8873 20.84 38.8873 20.88C38.8873 20.92 38.7373 20.96 38.4373 21C38.1573 21.04 37.9473 21.06 37.8073 21.06C36.8273 21.06 35.9473 21.32 35.1673 21.84C34.4073 22.36 33.7573 23.02 33.2173 23.82C32.6773 24.62 32.2573 25.44 31.9573 26.28C31.6773 27.1 31.5373 27.81 31.5373 28.41C31.5373 28.79 31.5973 29.1 31.7173 29.34C31.8573 29.58 32.0573 29.7 32.3173 29.7C32.5973 29.7 32.9173 29.51 33.2773 29.13C33.6373 28.75 33.9873 28.29 34.3273 27.75C34.6673 27.19 34.9773 26.65 35.2573 26.13C35.5373 25.59 35.7473 25.18 35.8873 24.9L37.1773 22.2C37.5173 22.12 37.8573 22.03 38.1973 21.93C38.5573 21.81 38.8973 21.68 39.2173 21.54C38.8773 22.12 38.5473 22.73 38.2273 23.37C37.9273 24.01 37.6173 24.64 37.2973 25.26C37.0573 25.72 36.8173 26.26 36.5773 26.88C36.3573 27.5 36.2473 28.06 36.2473 28.56V28.68C36.2473 28.84 36.2673 29.02 36.3073 29.22C36.3473 29.4 36.4573 29.49 36.6373 29.49C36.8573 29.49 37.1373 29.36 37.4773 29.1C37.8173 28.82 38.0573 28.61 38.1973 28.47C38.8373 27.83 39.3873 27.12 39.8473 26.34C40.3273 25.56 40.7673 24.77 41.1673 23.97C41.2073 23.93 41.2373 23.91 41.2573 23.91C41.4173 23.91 41.4773 23.99 41.4373 24.15C41.4373 24.15 41.3873 24.24 41.2873 24.42C41.2073 24.6 41.1573 24.7 41.1373 24.72C40.7573 25.42 40.3773 26.09 39.9973 26.73C39.6173 27.37 39.1673 27.98 38.6473 28.56C38.3273 28.88 37.9373 29.22 37.4773 29.58C37.0173 29.94 36.5573 30.12 36.0973 30.12C35.6573 30.12 35.3473 29.95 35.1673 29.61C34.9873 29.25 34.8973 28.85 34.8973 28.41C34.8973 28.13 34.9173 27.86 34.9573 27.6C35.0173 27.32 35.0773 27.08 35.1373 26.88C34.9973 27.24 34.7473 27.68 34.3873 28.2C34.0473 28.72 33.6573 29.18 33.2173 29.58C32.7973 29.96 32.3773 30.15 31.9573 30.15ZM40.9988 30.12C40.5388 30.12 40.2088 29.95 40.0088 29.61C39.8088 29.27 39.7088 28.87 39.7088 28.41C39.7088 27.79 39.8388 27.17 40.0988 26.55C40.5188 25.45 40.9088 24.5 41.2688 23.7C41.6488 22.9 42.0288 22.13 42.4088 21.39H41.5988C41.5188 21.39 41.4788 21.35 41.4788 21.27C41.4788 21.21 41.5088 21.14 41.5688 21.06C41.6288 20.98 41.6988 20.94 41.7788 20.94H42.6488L44.8088 16.62C45.1488 16.54 45.5088 16.45 45.8888 16.35C46.2888 16.23 46.6488 16.1 46.9688 15.96C46.6488 16.5 46.2088 17.21 45.6488 18.09C45.0888 18.95 44.5188 19.9 43.9388 20.94H46.0688C46.1488 20.94 46.1888 20.98 46.1888 21.06C46.1888 21.12 46.1588 21.19 46.0988 21.27C46.0388 21.35 45.9688 21.39 45.8888 21.39H43.6688C43.0488 22.49 42.4888 23.63 41.9888 24.81C41.5088 25.99 41.1888 27.1 41.0288 28.14C41.0088 28.22 40.9988 28.31 40.9988 28.41C40.9988 28.49 40.9988 28.56 40.9988 28.62C40.9988 29.16 41.1788 29.43 41.5388 29.43C41.7588 29.43 42.0088 29.34 42.2888 29.16C42.5688 28.96 42.8388 28.73 43.0988 28.47C43.7388 27.83 44.2888 27.12 44.7488 26.34C45.2288 25.56 45.6688 24.77 46.0688 23.97C46.1088 23.93 46.1388 23.91 46.1588 23.91C46.2988 23.91 46.3688 23.99 46.3688 24.15C46.3488 24.15 46.2888 24.24 46.1888 24.42C46.1088 24.6 46.0588 24.7 46.0388 24.72C45.6788 25.42 45.3088 26.09 44.9288 26.73C44.5488 27.37 44.0888 27.98 43.5488 28.56C43.2488 28.88 42.8688 29.22 42.4088 29.58C41.9488 29.94 41.4788 30.12 40.9988 30.12ZM46.4007 30.15C45.7207 30.15 45.2507 29.96 44.9907 29.58C44.7507 29.2 44.6307 28.73 44.6307 28.17C44.6307 27.59 44.7307 26.98 44.9307 26.34C45.1307 25.7 45.3207 25.19 45.5007 24.81C46.1407 23.47 47.0307 22.45 48.1707 21.75C49.3307 21.03 50.5207 20.67 51.7407 20.67C51.9007 20.67 52.0607 20.67 52.2207 20.67C52.4007 20.67 52.5707 20.69 52.7307 20.73C53.1307 20.79 53.3307 20.84 53.3307 20.88C53.3307 20.92 53.1807 20.96 52.8807 21C52.6007 21.04 52.3907 21.06 52.2507 21.06C51.2707 21.06 50.3907 21.32 49.6107 21.84C48.8507 22.36 48.2007 23.02 47.6607 23.82C47.1207 24.62 46.7007 25.44 46.4007 26.28C46.1207 27.1 45.9807 27.81 45.9807 28.41C45.9807 28.79 46.0407 29.1 46.1607 29.34C46.3007 29.58 46.5007 29.7 46.7607 29.7C47.0407 29.7 47.3607 29.51 47.7207 29.13C48.0807 28.75 48.4307 28.29 48.7707 27.75C49.1107 27.19 49.4207 26.65 49.7007 26.13C49.9807 25.59 50.1907 25.18 50.3307 24.9L51.6207 22.2C51.9607 22.12 52.3007 22.03 52.6407 21.93C53.0007 21.81 53.3407 21.68 53.6607 21.54C53.3207 22.12 52.9907 22.73 52.6707 23.37C52.3707 24.01 52.0607 24.64 51.7407 25.26C51.5007 25.72 51.2607 26.26 51.0207 26.88C50.8007 27.5 50.6907 28.06 50.6907 28.56V28.68C50.6907 28.84 50.7107 29.02 50.7507 29.22C50.7907 29.4 50.9007 29.49 51.0807 29.49C51.3007 29.49 51.5807 29.36 51.9207 29.1C52.2607 28.82 52.5007 28.61 52.6407 28.47C53.2807 27.83 53.8307 27.12 54.2907 26.34C54.7707 25.56 55.2107 24.77 55.6107 23.97C55.6507 23.93 55.6807 23.91 55.7007 23.91C55.8607 23.91 55.9207 23.99 55.8807 24.15C55.8807 24.15 55.8307 24.24 55.7307 24.42C55.6507 24.6 55.6007 24.7 55.5807 24.72C55.2007 25.42 54.8207 26.09 54.4407 26.73C54.0607 27.37 53.6107 27.98 53.0907 28.56C52.7707 28.88 52.3807 29.22 51.9207 29.58C51.4607 29.94 51.0007 30.12 50.5407 30.12C50.1007 30.12 49.7907 29.95 49.6107 29.61C49.4307 29.25 49.3407 28.85 49.3407 28.41C49.3407 28.13 49.3607 27.86 49.4007 27.6C49.4607 27.32 49.5207 27.08 49.5807 26.88C49.4407 27.24 49.1907 27.68 48.8307 28.2C48.4907 28.72 48.1007 29.18 47.6607 29.58C47.2407 29.96 46.8207 30.15 46.4007 30.15ZM56.0721 30.27C55.6921 30.27 55.3521 30.12 55.0521 29.82C54.7521 29.5 54.6021 28.94 54.6021 28.14C54.6021 27.6 54.7121 26.9 54.9321 26.04C55.1521 25.18 55.4421 24.23 55.8021 23.19C56.1821 22.15 56.5921 21.09 57.0321 20.01C57.4921 18.91 57.9521 17.87 58.4121 16.89C58.8921 15.89 59.3321 15 59.7321 14.22C60.1521 13.44 60.5121 12.85 60.8121 12.45C61.3321 11.75 61.8621 11.22 62.4021 10.86C62.9621 10.48 63.4421 10.29 63.8421 10.29C64.5021 10.29 64.8321 10.7 64.8321 11.52C64.8321 11.96 64.7021 12.53 64.4421 13.23C64.1821 13.91 63.7521 14.73 63.1521 15.69C62.7121 16.39 62.2121 17.13 61.6521 17.91C61.1121 18.67 60.5621 19.41 60.0021 20.13C59.4421 20.85 58.9021 21.5 58.3821 22.08C57.8821 22.64 57.4521 23.08 57.0921 23.4C57.0921 23.4 57.0221 23.6 56.8821 24C56.7421 24.38 56.5721 24.87 56.3721 25.47C56.1921 26.05 56.0321 26.65 55.8921 27.27C55.7521 27.89 55.6821 28.43 55.6821 28.89C55.6821 29.19 55.7221 29.44 55.8021 29.64C55.9021 29.82 56.0521 29.91 56.2521 29.91C56.5521 29.91 56.9621 29.71 57.4821 29.31C57.8021 29.07 58.1121 28.79 58.4121 28.47C58.7121 28.13 58.9721 27.8 59.1921 27.48C59.4321 27.16 59.5921 26.93 59.6721 26.79C59.8521 26.51 60.0621 26.15 60.3021 25.71C60.5621 25.27 60.8021 24.86 61.0221 24.48C61.2421 24.08 61.3721 23.83 61.4121 23.73C61.4521 23.69 61.4821 23.67 61.5021 23.67C61.5421 23.67 61.5921 23.7 61.6521 23.76C61.7121 23.8 61.7221 23.84 61.6821 23.88C61.2021 24.88 60.7521 25.73 60.3321 26.43C59.9321 27.13 59.5221 27.73 59.1021 28.23C58.6821 28.71 58.2121 29.17 57.6921 29.61C57.4721 29.81 57.2121 29.97 56.9121 30.09C56.6321 30.21 56.3521 30.27 56.0721 30.27ZM57.3021 22.74C57.7821 22.18 58.3521 21.48 59.0121 20.64C59.6721 19.78 60.3421 18.88 61.0221 17.94C61.7021 17 62.2921 16.12 62.7921 15.3C63.2921 14.48 63.6421 13.76 63.8421 13.14C64.0621 12.52 64.1721 12.02 64.1721 11.64C64.1721 11.1 64.0021 10.83 63.6621 10.83C63.4421 10.83 63.1421 11.01 62.7621 11.37C62.4021 11.71 62.0121 12.26 61.5921 13.02C61.2921 13.56 60.9621 14.21 60.6021 14.97C60.2421 15.73 59.8821 16.53 59.5221 17.37C59.1621 18.21 58.8221 19.01 58.5021 19.77C58.1821 20.51 57.9121 21.15 57.6921 21.69C57.4921 22.23 57.3621 22.58 57.3021 22.74ZM65.9557 18.9C65.6757 18.9 65.4357 18.81 65.2357 18.63C65.0557 18.43 64.9657 18.2 64.9657 17.94C64.9657 17.6 65.0757 17.31 65.2957 17.07C65.5357 16.83 65.8157 16.71 66.1357 16.71C66.4157 16.71 66.6557 16.81 66.8557 17.01C67.0557 17.21 67.1557 17.46 67.1557 17.76C67.1557 18.08 67.0357 18.35 66.7957 18.57C66.5557 18.79 66.2757 18.9 65.9557 18.9ZM62.6557 30.15C62.2957 30.15 62.0057 30.02 61.7857 29.76C61.5857 29.48 61.4857 29.12 61.4857 28.68C61.4857 28.12 61.5957 27.52 61.8157 26.88C62.0557 26.24 62.3257 25.6 62.6257 24.96C62.9457 24.3 63.2257 23.68 63.4657 23.1C63.5657 22.82 63.6557 22.57 63.7357 22.35C63.8157 22.13 63.8557 21.95 63.8557 21.81C63.8557 21.61 63.7657 21.51 63.5857 21.51C63.3457 21.51 63.1057 21.66 62.8657 21.96C62.6257 22.26 62.4057 22.6 62.2057 22.98C62.0257 23.34 61.8757 23.63 61.7557 23.85C61.4557 24.43 61.1257 25.03 60.7657 25.65C60.4257 26.27 60.0757 26.84 59.7157 27.36C59.7157 27.38 59.6957 27.39 59.6557 27.39C59.6157 27.39 59.5657 27.36 59.5057 27.3C59.4457 27.24 59.4257 27.2 59.4457 27.18C59.8257 26.64 60.1757 26.07 60.4957 25.47C60.8357 24.85 61.1457 24.26 61.4257 23.7C61.6257 23.28 61.8457 22.85 62.0857 22.41C62.3457 21.95 62.6457 21.57 62.9857 21.27C63.3257 20.95 63.7157 20.79 64.1557 20.79C64.3557 20.79 64.5857 20.84 64.8457 20.94C65.1457 21.06 65.2957 21.32 65.2957 21.72C65.2957 21.92 65.2557 22.16 65.1757 22.44C65.1157 22.7 65.0257 23 64.9057 23.34C64.6457 24.02 64.3557 24.71 64.0357 25.41C63.7357 26.09 63.4557 26.78 63.1957 27.48C62.9957 28.02 62.8957 28.5 62.8957 28.92C62.8957 29.38 63.0457 29.61 63.3457 29.61C63.6257 29.61 64.0557 29.36 64.6357 28.86C65.2157 28.34 65.7557 27.69 66.2557 26.91C66.7557 26.11 67.3557 25.04 68.0557 23.7C68.0757 23.66 68.1157 23.64 68.1757 23.64C68.2157 23.64 68.2557 23.67 68.2957 23.73C68.3557 23.77 68.3757 23.81 68.3557 23.85C67.2957 25.91 66.3457 27.48 65.5057 28.56C64.6657 29.62 63.7157 30.15 62.6557 30.15ZM67.7468 30.12C67.2868 30.12 66.9568 29.95 66.7568 29.61C66.5568 29.27 66.4568 28.87 66.4568 28.41C66.4568 27.79 66.5868 27.17 66.8468 26.55C67.2668 25.45 67.6568 24.5 68.0168 23.7C68.3968 22.9 68.7768 22.13 69.1568 21.39H68.3468C68.2668 21.39 68.2268 21.35 68.2268 21.27C68.2268 21.21 68.2568 21.14 68.3168 21.06C68.3768 20.98 68.4468 20.94 68.5268 20.94H69.3968L71.5568 16.62C71.8968 16.54 72.2568 16.45 72.6368 16.35C73.0368 16.23 73.3968 16.1 73.7168 15.96C73.3968 16.5 72.9568 17.21 72.3968 18.09C71.8368 18.95 71.2668 19.9 70.6868 20.94H72.8168C72.8968 20.94 72.9368 20.98 72.9368 21.06C72.9368 21.12 72.9068 21.19 72.8468 21.27C72.7868 21.35 72.7168 21.39 72.6368 21.39H70.4168C69.7968 22.49 69.2368 23.63 68.7368 24.81C68.2568 25.99 67.9368 27.1 67.7768 28.14C67.7568 28.22 67.7468 28.31 67.7468 28.41C67.7468 28.49 67.7468 28.56 67.7468 28.62C67.7468 29.16 67.9268 29.43 68.2868 29.43C68.5068 29.43 68.7568 29.34 69.0368 29.16C69.3168 28.96 69.5868 28.73 69.8468 28.47C70.4868 27.83 71.0368 27.12 71.4968 26.34C71.9768 25.56 72.4168 24.77 72.8168 23.97C72.8568 23.93 72.8868 23.91 72.9068 23.91C73.0468 23.91 73.1168 23.99 73.1168 24.15C73.0968 24.15 73.0368 24.24 72.9368 24.42C72.8568 24.6 72.8068 24.7 72.7868 24.72C72.4268 25.42 72.0568 26.09 71.6768 26.73C71.2968 27.37 70.8368 27.98 70.2968 28.56C69.9968 28.88 69.6168 29.22 69.1568 29.58C68.6968 29.94 68.2268 30.12 67.7468 30.12ZM74.2887 30.3C73.4287 30.3 72.8187 30.01 72.4587 29.43C72.0987 28.83 71.9187 28.15 71.9187 27.39C71.9187 26.93 71.9687 26.48 72.0687 26.04C72.1687 25.6 72.2887 25.19 72.4287 24.81C72.6487 24.27 72.9587 23.7 73.3587 23.1C73.7787 22.48 74.2787 21.95 74.8587 21.51C75.4387 21.07 76.0687 20.85 76.7487 20.85C77.3087 20.85 77.6987 21.01 77.9187 21.33C78.1387 21.63 78.2487 22.01 78.2487 22.47C78.2487 22.55 78.2487 22.63 78.2487 22.71C78.2487 22.77 78.2387 22.85 78.2187 22.95C78.1587 23.49 77.9487 24.05 77.5887 24.63C77.2287 25.21 76.7787 25.7 76.2387 26.1C75.6987 26.48 75.1187 26.67 74.4987 26.67C74.1387 26.67 73.8187 26.57 73.5387 26.37C73.3587 27.05 73.2687 27.67 73.2687 28.23C73.2687 28.69 73.3487 29.07 73.5087 29.37C73.6887 29.67 73.9587 29.82 74.3187 29.82C74.7387 29.82 75.2387 29.64 75.8187 29.28C76.4187 28.9 77.0587 28.26 77.7387 27.36C78.4387 26.46 79.1487 25.23 79.8687 23.67C79.8687 23.65 79.8887 23.64 79.9287 23.64C79.9887 23.64 80.0487 23.67 80.1087 23.73C80.1887 23.77 80.2087 23.81 80.1687 23.85C79.1887 26.07 78.1487 27.7 77.0487 28.74C75.9687 29.78 75.0487 30.3 74.2887 30.3ZM74.3487 26.19C74.7887 26.19 75.2187 26.03 75.6387 25.71C76.0587 25.37 76.4387 24.95 76.7787 24.45C77.1187 23.93 77.3887 23.41 77.5887 22.89C77.6687 22.67 77.7087 22.42 77.7087 22.14C77.7087 21.88 77.6587 21.66 77.5587 21.48C77.4787 21.28 77.3287 21.18 77.1087 21.18C76.7487 21.18 76.3587 21.41 75.9387 21.87C75.5187 22.31 75.1287 22.84 74.7687 23.46C74.4087 24.06 74.1387 24.61 73.9587 25.11C73.8987 25.25 73.8387 25.4 73.7787 25.56C73.7387 25.7 73.6987 25.85 73.6587 26.01C73.8987 26.13 74.1287 26.19 74.3487 26.19Z" fill="#213A85"/>
</svg>
