<svg width="119" height="33" viewBox="0 0 119 33" fill="none" xmlns="http://www.w3.org/2000/svg">
<path d="M3.66702 27.12C2.70702 27.12 2.00302 26.736 1.55502 25.968C1.10702 25.184 1.00302 24.128 1.24302 22.8C1.46702 21.616 1.87502 20.592 2.46702 19.728C3.07502 18.864 3.84302 18.2 4.77102 17.736C5.69902 17.256 6.73902 17.016 7.89102 17.016H9.11502L8.85102 18.72H7.98702C6.72302 18.72 5.65902 19.088 4.79502 19.824C3.93102 20.56 3.38702 21.552 3.16302 22.8C3.03502 23.6 3.05902 24.24 3.23502 24.72C3.42702 25.184 3.71502 25.416 4.09902 25.416C4.62702 25.416 5.25102 24.896 5.97102 23.856C6.69102 22.8 7.40302 21.336 8.10702 19.464L7.84302 22.824C7.25102 24.264 6.58702 25.344 5.85102 26.064C5.11502 26.768 4.38702 27.12 3.66702 27.12ZM7.86702 27C7.62702 27 7.40302 26.92 7.19502 26.76C6.98702 26.584 6.90702 26.328 6.95502 25.992L9.90702 9.192C9.97102 8.92 10.099 8.728 10.291 8.616C10.483 8.504 10.683 8.456 10.891 8.472C11.163 8.488 11.395 8.584 11.587 8.76C11.779 8.92 11.851 9.152 11.803 9.456L8.82702 26.184C8.77902 26.456 8.65902 26.664 8.46702 26.808C8.29102 26.936 8.09102 27 7.86702 27ZM14.4483 27.12C13.4883 27.12 12.7843 26.736 12.3363 25.968C11.8883 25.184 11.7843 24.128 12.0243 22.8C12.2483 21.616 12.6563 20.592 13.2483 19.728C13.8563 18.864 14.6243 18.2 15.5523 17.736C16.4803 17.256 17.5203 17.016 18.6723 17.016H19.8963L19.6323 18.72H18.7683C17.5043 18.72 16.4403 19.088 15.5763 19.824C14.7123 20.56 14.1683 21.552 13.9443 22.8C13.8163 23.6 13.8403 24.24 14.0163 24.72C14.2083 25.184 14.4963 25.416 14.8803 25.416C15.4083 25.416 16.0323 24.896 16.7523 23.856C17.4723 22.8 18.1843 21.336 18.8883 19.464L18.6243 22.824C18.0323 24.264 17.3683 25.344 16.6323 26.064C15.8963 26.768 15.1683 27.12 14.4483 27.12ZM18.5523 27C18.2003 27 17.9603 26.904 17.8323 26.712C17.7203 26.52 17.6803 26.336 17.7123 26.16L19.3203 17.016H20.3523C20.6563 17.016 20.8563 17.128 20.9523 17.352C21.0483 17.576 21.0643 17.856 21.0003 18.192L19.5843 26.208C19.5683 26.32 19.4963 26.48 19.3683 26.688C19.2403 26.896 18.9683 27 18.5523 27ZM24.422 27C24.166 27 23.934 26.928 23.726 26.784C23.534 26.64 23.462 26.416 23.51 26.112L26.102 11.544C26.166 11.304 26.278 11.12 26.438 10.992C26.614 10.864 26.806 10.8 27.014 10.8C27.286 10.8 27.526 10.88 27.734 11.04C27.958 11.184 28.038 11.424 27.974 11.76L25.454 26.232C25.406 26.504 25.278 26.704 25.07 26.832C24.878 26.944 24.662 27 24.422 27ZM23.15 18.696C22.83 18.696 22.59 18.616 22.43 18.456C22.27 18.28 22.19 18.072 22.19 17.832C22.19 17.608 22.27 17.416 22.43 17.256C22.59 17.096 22.83 17.016 23.15 17.016H29.054C29.39 17.016 29.63 17.096 29.774 17.256C29.934 17.416 30.014 17.608 30.014 17.832C30.014 18.072 29.934 18.28 29.774 18.456C29.63 18.616 29.39 18.696 29.054 18.696H23.15ZM33.0811 27.12C32.1211 27.12 31.4171 26.736 30.9691 25.968C30.5211 25.184 30.4171 24.128 30.6571 22.8C30.8811 21.616 31.2891 20.592 31.8811 19.728C32.4891 18.864 33.2571 18.2 34.1851 17.736C35.1131 17.256 36.1531 17.016 37.3051 17.016H38.5291L38.2651 18.72H37.4011C36.1371 18.72 35.0731 19.088 34.2091 19.824C33.3451 20.56 32.8011 21.552 32.5771 22.8C32.4491 23.6 32.4731 24.24 32.6491 24.72C32.8411 25.184 33.1291 25.416 33.5131 25.416C34.0411 25.416 34.6651 24.896 35.3851 23.856C36.1051 22.8 36.8171 21.336 37.5211 19.464L37.2571 22.824C36.6651 24.264 36.0011 25.344 35.2651 26.064C34.5291 26.768 33.8011 27.12 33.0811 27.12ZM37.1851 27C36.8331 27 36.5931 26.904 36.4651 26.712C36.3531 26.52 36.3131 26.336 36.3451 26.16L37.9531 17.016H38.9851C39.2891 17.016 39.4891 17.128 39.5851 17.352C39.6811 17.576 39.6971 17.856 39.6331 18.192L38.2171 26.208C38.2011 26.32 38.1291 26.48 38.0011 26.688C37.8731 26.896 37.6011 27 37.1851 27ZM51.4538 27.13C50.2925 27.13 49.4865 26.714 49.0358 25.882C48.6025 25.05 48.5245 23.802 48.8018 22.138L49.6598 17.25C49.7118 17.0073 49.8678 16.7733 50.1278 16.548C50.4052 16.3053 50.8212 16.184 51.3758 16.184C51.8785 16.184 52.2425 16.3487 52.4678 16.678C52.7105 16.99 52.7972 17.328 52.7278 17.692L51.8698 22.606C51.7485 23.23 51.7398 23.698 51.8438 24.01C51.9652 24.322 52.1905 24.478 52.5198 24.478C52.8145 24.478 53.2305 24.14 53.7678 23.464C54.3225 22.7707 54.9725 21.748 55.7178 20.396L55.0678 24.478C54.4438 25.3447 53.8285 26.0033 53.2218 26.454C52.6152 26.9047 52.0258 27.13 51.4538 27.13ZM55.8998 27C55.4145 27 55.0505 26.87 54.8078 26.61C54.5825 26.35 54.5045 25.986 54.5738 25.518L56.0298 17.328C56.0818 17.0853 56.2552 16.834 56.5498 16.574C56.8445 16.314 57.2778 16.184 57.8498 16.184C58.3872 16.184 58.7512 16.3227 58.9418 16.6C59.1325 16.86 59.1932 17.172 59.1238 17.536L57.6678 25.7C57.6505 25.8213 57.5812 25.986 57.4598 26.194C57.3558 26.402 57.1738 26.5927 56.9138 26.766C56.6712 26.922 56.3332 27 55.8998 27ZM64.4969 27.13C64.0809 27.13 63.6129 27.0693 63.0929 26.948C62.5902 26.8093 62.1396 26.6187 61.7409 26.376C61.1516 25.9947 60.7702 25.596 60.5969 25.18C60.4236 24.764 60.4496 24.374 60.6749 24.01C60.8829 23.646 61.2036 23.4813 61.6369 23.516C62.0702 23.5333 62.4516 23.6547 62.7809 23.88C62.9196 23.9493 63.1536 24.0707 63.4829 24.244C63.8296 24.4 64.1762 24.478 64.5229 24.478C64.8349 24.478 65.0602 24.4173 65.1989 24.296C65.3376 24.1573 65.4069 24.0013 65.4069 23.828C65.4069 23.7067 65.3896 23.6113 65.3549 23.542C65.3202 23.4727 65.2422 23.386 65.1209 23.282C64.9129 23.1433 64.6616 22.9787 64.3669 22.788C64.0722 22.5973 63.7516 22.398 63.4049 22.19C62.7462 21.7913 62.2436 21.3233 61.8969 20.786C61.5676 20.2487 61.4029 19.642 61.4029 18.966C61.4029 18.03 61.7496 17.2933 62.4429 16.756C63.1536 16.2187 64.1156 15.95 65.3289 15.95C65.7449 15.95 66.1869 15.9933 66.6549 16.08C67.1402 16.1493 67.5736 16.2793 67.9549 16.47C68.5269 16.7473 68.9256 17.0853 69.1509 17.484C69.3762 17.8827 69.3676 18.316 69.1249 18.784C68.9516 19.1133 68.6569 19.2867 68.2409 19.304C67.8422 19.304 67.4436 19.2 67.0449 18.992C66.8022 18.8533 66.4989 18.7407 66.1349 18.654C65.7882 18.5673 65.4329 18.524 65.0689 18.524C64.8089 18.524 64.6009 18.5673 64.4449 18.654C64.3062 18.7233 64.2369 18.8273 64.2369 18.966C64.2369 19.1393 64.3409 19.3387 64.5489 19.564C64.7569 19.772 65.0862 20.0233 65.5369 20.318C65.8489 20.526 66.1696 20.7427 66.4989 20.968C66.8456 21.176 67.1056 21.3667 67.2789 21.54C67.5736 21.8173 67.8076 22.1207 67.9809 22.45C68.1716 22.7793 68.2669 23.2647 68.2669 23.906C68.2669 24.894 67.9289 25.6827 67.2529 26.272C66.5769 26.844 65.6582 27.13 64.4969 27.13ZM74.2408 27.13C73.0795 27.13 72.1955 26.818 71.5888 26.194C70.9995 25.57 70.7048 24.634 70.7048 23.386C70.7048 22.398 70.8695 21.462 71.1988 20.578C71.5455 19.6767 72.0048 18.8793 72.5768 18.186C73.1488 17.4927 73.8075 16.9467 74.5528 16.548C75.2981 16.1493 76.0695 15.95 76.8668 15.95C77.8548 15.95 78.5915 16.1407 79.0768 16.522C79.5795 16.9033 79.8308 17.4753 79.8308 18.238C79.8308 18.5673 79.7615 18.8967 79.6228 19.226C79.5015 19.538 79.3021 19.85 79.0248 20.162C78.7648 20.474 78.4268 20.786 78.0108 21.098C77.6121 21.3927 77.1441 21.696 76.6068 22.008C76.2775 22.1987 75.8701 22.4153 75.3848 22.658C74.9168 22.9007 74.3968 23.1607 73.8248 23.438C73.2528 23.7153 72.6635 23.9927 72.0568 24.27L72.4468 21.852C72.6375 21.748 72.8975 21.6093 73.2268 21.436C73.5735 21.2453 73.9288 21.046 74.2928 20.838C74.6741 20.63 75.0035 20.448 75.2808 20.292C75.8701 19.9453 76.3121 19.6247 76.6068 19.33C76.9015 19.018 77.0488 18.7667 77.0488 18.576C77.0488 18.4893 77.0228 18.42 76.9708 18.368C76.9361 18.316 76.8755 18.29 76.7888 18.29C76.2168 18.29 75.6968 18.5153 75.2288 18.966C74.7781 19.3993 74.4141 19.9973 74.1368 20.76C73.8768 21.5227 73.7468 22.3893 73.7468 23.36C73.7468 23.7413 73.8075 24.0273 73.9288 24.218C74.0675 24.4087 74.2495 24.504 74.4748 24.504C74.8041 24.504 75.1335 24.426 75.4628 24.27C75.7921 24.114 76.0781 23.8887 76.3208 23.594C76.6501 23.2127 76.9968 22.97 77.3608 22.866C77.7421 22.762 78.0888 22.8227 78.4008 23.048C78.6261 23.2213 78.7821 23.4987 78.8688 23.88C78.9728 24.2613 78.8255 24.7033 78.4268 25.206C77.9415 25.7953 77.3261 26.2633 76.5808 26.61C75.8355 26.9567 75.0555 27.13 74.2408 27.13ZM82.5395 27C82.1408 27 81.7855 26.87 81.4735 26.61C81.1615 26.35 81.0401 25.986 81.1095 25.518L82.5395 17.458C82.6261 17.042 82.8341 16.73 83.1635 16.522C83.5101 16.2967 83.8481 16.184 84.1775 16.184C84.5761 16.184 84.9315 16.3313 85.2435 16.626C85.5728 16.9207 85.6941 17.3193 85.6075 17.822L84.2035 25.726C84.1341 26.142 83.9261 26.4627 83.5795 26.688C83.2328 26.896 82.8861 27 82.5395 27ZM83.6835 24.582L84.1775 20.734C84.5068 19.9887 84.8881 19.252 85.3215 18.524C85.7721 17.7787 86.2228 17.1633 86.6735 16.678C87.1415 16.1927 87.5661 15.95 87.9475 15.95C88.2941 15.95 88.5368 16.0107 88.6755 16.132C88.8141 16.2533 88.9268 16.3833 89.0135 16.522C89.1175 16.6433 89.2648 16.704 89.4555 16.704C89.6635 16.704 89.8715 16.6347 90.0795 16.496C90.3048 16.3573 90.4695 16.2533 90.5735 16.184C90.7815 16.0453 91.0501 15.976 91.3795 15.976C91.7088 15.9587 92.0035 16.0453 92.2635 16.236C92.5235 16.4093 92.6535 16.7213 92.6535 17.172C92.6535 17.64 92.4975 17.978 92.1855 18.186C91.8735 18.3767 91.5961 18.5413 91.3535 18.68C91.0761 18.836 90.7381 19.0093 90.3395 19.2C89.9408 19.3733 89.6201 19.46 89.3775 19.46C89.0828 19.46 88.8141 19.408 88.5715 19.304C88.3461 19.2 88.1381 19.096 87.9475 18.992C87.7568 18.888 87.5748 18.836 87.4015 18.836C87.2455 18.836 87.0028 19.0267 86.6735 19.408C86.3441 19.7893 85.9281 20.4047 85.4255 21.254C84.9228 22.086 84.3421 23.1953 83.6835 24.582ZM97.0731 27.13C96.6571 27.13 96.1891 27.0693 95.6691 26.948C95.1664 26.8093 94.7157 26.6187 94.3171 26.376C93.7277 25.9947 93.3464 25.596 93.1731 25.18C92.9997 24.764 93.0257 24.374 93.2511 24.01C93.4591 23.646 93.7797 23.4813 94.2131 23.516C94.6464 23.5333 95.0277 23.6547 95.3571 23.88C95.4957 23.9493 95.7297 24.0707 96.0591 24.244C96.4057 24.4 96.7524 24.478 97.0991 24.478C97.4111 24.478 97.6364 24.4173 97.7751 24.296C97.9137 24.1573 97.9831 24.0013 97.9831 23.828C97.9831 23.7067 97.9657 23.6113 97.9311 23.542C97.8964 23.4727 97.8184 23.386 97.6971 23.282C97.4891 23.1433 97.2377 22.9787 96.9431 22.788C96.6484 22.5973 96.3277 22.398 95.9811 22.19C95.3224 21.7913 94.8197 21.3233 94.4731 20.786C94.1437 20.2487 93.9791 19.642 93.9791 18.966C93.9791 18.03 94.3257 17.2933 95.0191 16.756C95.7297 16.2187 96.6917 15.95 97.9051 15.95C98.3211 15.95 98.7631 15.9933 99.2311 16.08C99.7164 16.1493 100.15 16.2793 100.531 16.47C101.103 16.7473 101.502 17.0853 101.727 17.484C101.952 17.8827 101.944 18.316 101.701 18.784C101.528 19.1133 101.233 19.2867 100.817 19.304C100.418 19.304 100.02 19.2 99.6211 18.992C99.3784 18.8533 99.0751 18.7407 98.7111 18.654C98.3644 18.5673 98.0091 18.524 97.6451 18.524C97.3851 18.524 97.1771 18.5673 97.0211 18.654C96.8824 18.7233 96.8131 18.8273 96.8131 18.966C96.8131 19.1393 96.9171 19.3387 97.1251 19.564C97.3331 19.772 97.6624 20.0233 98.1131 20.318C98.4251 20.526 98.7457 20.7427 99.0751 20.968C99.4217 21.176 99.6817 21.3667 99.8551 21.54C100.15 21.8173 100.384 22.1207 100.557 22.45C100.748 22.7793 100.843 23.2647 100.843 23.906C100.843 24.894 100.505 25.6827 99.8291 26.272C99.1531 26.844 98.2344 27.13 97.0731 27.13Z" fill="#101010"/>
<path d="M111.667 13.1667L111.335 12.8337M111.667 13.1667H112.001C112.001 13.0784 111.966 12.9939 111.903 12.9314C111.856 12.8846 111.797 12.8524 111.733 12.8396L111.668 12.8337H111.335M111.667 13.1667L111.335 12.8337M111.667 13.1667H111.001C110.889 13.1668 110.779 13.1778 110.67 13.196L110.668 13.1667C110.668 13.1006 110.688 13.0365 110.724 12.9822L110.766 12.9314C110.812 12.8845 110.872 12.8524 110.936 12.8396L111.001 12.8337H111.335M111.668 15.1667C111.895 15.1667 112.118 15.1253 112.328 15.0515C112.331 15.0897 112.334 15.1281 112.334 15.1667C112.334 15.2802 112.318 15.3917 112.29 15.4998H111.712C111.695 15.4338 111.681 15.3669 111.674 15.2986L111.668 15.1667Z" fill="#65AD90" stroke="#65AD90" stroke-width="3.33333"/>
</svg>
