<svg width="107" height="29" viewBox="0 0 107 29" fill="none" xmlns="http://www.w3.org/2000/svg">
<path d="M12 11C17.5228 11 22 9.65685 22 8C22 6.34315 17.5228 5 12 5C6.47715 5 2 6.34315 2 8C2 9.65685 6.47715 11 12 11Z" stroke="#1C4445" stroke-width="2" stroke-linecap="round" stroke-linejoin="round"/>
<path d="M5.385 10.25C3.31 10.8 2 11.604 2 12.5C2 14.157 6.477 15.5 12 15.5C17.523 15.5 22 14.157 22 12.5C22 11.604 20.6905 10.8 18.615 10.25C16.852 10.7165 14.536 11 12 11C9.464 11 7.1485 10.7165 5.385 10.25Z" stroke="#1C4445" stroke-width="2" stroke-linecap="round" stroke-linejoin="round"/>
<path d="M5.385 14.75C3.31 15.3 2 16.104 2 17C2 18.657 6.477 20 12 20C17.523 20 22 18.657 22 17C22 16.104 20.6905 15.3 18.615 14.75" stroke="#1C4445" stroke-width="2" stroke-linecap="round" stroke-linejoin="round"/>
<path d="M5.385 19.25C3.31 19.8 2 20.604 2 21.5C2 23.157 6.477 24.5 12 24.5C17.523 24.5 22 23.157 22 21.5C22 20.604 20.6905 19.8 18.615 19.25" stroke="#1C4445" stroke-width="2" stroke-linecap="round" stroke-linejoin="round"/>
<path d="M33.1588 22C31.6068 22 30.5188 21.704 29.8948 21.112C29.2708 20.504 28.9588 19.48 28.9588 18.04V10.36C28.9588 8.936 29.2708 7.928 29.8948 7.336C30.5188 6.728 31.6068 6.424 33.1588 6.424C34.7268 6.424 35.8148 6.744 36.4228 7.384C37.0468 8.008 37.3588 9.04 37.3588 10.48H34.5988L34.5508 9.832C34.5028 9.48 34.4468 9.248 34.3828 9.136C34.3348 9.008 34.1748 8.944 33.9028 8.944H33.1588C32.5988 8.944 32.1988 9.016 31.9588 9.16C31.7348 9.304 31.6228 9.704 31.6228 10.36V18.04C31.6228 18.472 31.6788 18.784 31.7908 18.976C31.9028 19.168 32.0868 19.288 32.3428 19.336C32.5988 19.384 32.9428 19.424 33.3748 19.456H33.4948C34.0068 19.456 34.3268 19.28 34.4548 18.928C34.5988 18.56 34.6708 17.984 34.6708 17.2V15.856H32.4628V13.312H37.3588V16.12C37.3588 17.08 37.3188 17.928 37.2388 18.664C37.1588 19.4 36.9828 20.016 36.7108 20.512C36.4388 20.992 36.0148 21.36 35.4388 21.616C34.8788 21.872 34.1188 22 33.1588 22ZM38.8071 22V6.424H41.5191V19.456H45.4071V22H38.8071ZM50.4323 22C48.8803 22 47.7923 21.696 47.1683 21.088C46.5603 20.464 46.2563 19.448 46.2563 18.04V10.384C46.2563 8.96 46.5603 7.944 47.1683 7.336C47.7923 6.728 48.8803 6.424 50.4323 6.424C51.9683 6.424 53.0483 6.728 53.6723 7.336C54.3123 7.928 54.6323 8.944 54.6323 10.384V17.272C54.6323 18.04 54.5923 18.72 54.5123 19.312C54.4323 19.904 54.2483 20.4 53.9603 20.8C53.6883 21.2 53.2723 21.504 52.7122 21.712C52.1523 21.904 51.3923 22 50.4323 22ZM50.4803 19.408C51.1843 19.408 51.6003 19.24 51.7283 18.904C51.8723 18.552 51.9443 18.008 51.9443 17.272V10.384C51.9443 9.92 51.9123 9.592 51.8483 9.4C51.8003 9.192 51.6723 9.072 51.4643 9.04C51.2563 8.992 50.9123 8.968 50.4323 8.968C49.9523 8.968 49.6003 9.008 49.3763 9.088C49.1683 9.152 49.0323 9.288 48.9683 9.496C48.9203 9.688 48.8963 9.984 48.8963 10.384L48.9443 17.392C48.9443 17.936 48.9763 18.352 49.0403 18.64C49.1043 18.928 49.2483 19.128 49.4723 19.24C49.6963 19.352 50.0323 19.408 50.4803 19.408ZM60.1605 22C58.6085 22 57.5205 21.704 56.8965 21.112C56.2725 20.504 55.9605 19.48 55.9605 18.04V10.384C55.9605 8.976 56.2645 7.968 56.8725 7.36C57.4965 6.736 58.5925 6.424 60.1605 6.424C61.7125 6.424 62.8005 6.736 63.4245 7.36C64.0485 7.984 64.3605 9.032 64.3605 10.504H61.6965C61.6965 10.024 61.6725 9.68 61.6245 9.472C61.5925 9.248 61.4645 9.112 61.2405 9.064C61.0325 9 60.6725 8.968 60.1605 8.968C59.6645 8.968 59.3045 8.992 59.0805 9.04C58.8725 9.072 58.7445 9.192 58.6965 9.4C58.6645 9.592 58.6485 9.92 58.6485 10.384V18.568C58.6805 18.84 58.8725 19.04 59.2245 19.168C59.5765 19.296 59.9525 19.36 60.3525 19.36C60.8805 19.36 61.2405 19.304 61.4325 19.192C61.6405 19.064 61.7445 18.728 61.7445 18.184C61.7445 18.056 61.7365 17.92 61.7205 17.776C61.7205 17.616 61.7125 17.408 61.6965 17.152H64.3605C64.3605 17.92 64.3205 18.608 64.2405 19.216C64.1765 19.824 64.0085 20.336 63.7365 20.752C63.4645 21.152 63.0485 21.464 62.4885 21.688C61.9285 21.896 61.1525 22 60.1605 22ZM65.3505 22V18.664C65.3505 17.176 65.4145 15.752 65.5425 14.392C65.6865 13.016 65.9905 11.672 66.4545 10.36C66.9345 9.048 67.6705 7.736 68.6625 6.424H70.3905C71.3985 7.72 72.1425 9.04 72.6225 10.384C73.1025 11.712 73.4065 13.064 73.5345 14.44C73.6785 15.816 73.7505 17.224 73.7505 18.664V22H71.0625V18.928H68.0145V22H65.3505ZM68.0145 16.408H71.0385C70.9745 15.288 70.8225 14.168 70.5825 13.048C70.3425 11.928 69.9905 10.88 69.5265 9.904C69.0465 10.912 68.6865 11.968 68.4465 13.072C68.2065 14.176 68.0625 15.288 68.0145 16.408ZM78.8871 22C77.3351 22 76.2471 21.704 75.6231 21.112C74.9991 20.504 74.6871 19.48 74.6871 18.04V10.384C74.6871 8.976 74.9911 7.968 75.5991 7.36C76.2231 6.736 77.3191 6.424 78.8871 6.424C80.4391 6.424 81.5271 6.736 82.1511 7.36C82.7751 7.984 83.0871 9.032 83.0871 10.504H80.4231C80.4231 10.024 80.3991 9.68 80.3511 9.472C80.3191 9.248 80.1911 9.112 79.9671 9.064C79.7591 9 79.3991 8.968 78.8871 8.968C78.3911 8.968 78.0311 8.992 77.8071 9.04C77.5991 9.072 77.4711 9.192 77.4231 9.4C77.3911 9.592 77.3751 9.92 77.3751 10.384V18.568C77.4071 18.84 77.5991 19.04 77.9511 19.168C78.3031 19.296 78.6791 19.36 79.0791 19.36C79.6071 19.36 79.9671 19.304 80.1591 19.192C80.3671 19.064 80.4711 18.728 80.4711 18.184C80.4711 18.056 80.4631 17.92 80.4471 17.776C80.4471 17.616 80.4391 17.408 80.4231 17.152H83.0871C83.0871 17.92 83.0471 18.608 82.9671 19.216C82.9031 19.824 82.7351 20.336 82.4631 20.752C82.1911 21.152 81.7751 21.464 81.2151 21.688C80.6551 21.896 79.8791 22 78.8871 22ZM88.5651 22C87.0131 22 85.9251 21.696 85.3011 21.088C84.6931 20.464 84.3891 19.448 84.3891 18.04V10.384C84.3891 8.96 84.6931 7.944 85.3011 7.336C85.9251 6.728 87.0131 6.424 88.5651 6.424C90.1011 6.424 91.1811 6.728 91.8051 7.336C92.4451 7.928 92.7651 8.944 92.7651 10.384V17.272C92.7651 18.04 92.7251 18.72 92.6451 19.312C92.5651 19.904 92.3811 20.4 92.0931 20.8C91.8211 21.2 91.4051 21.504 90.8451 21.712C90.2851 21.904 89.5251 22 88.5651 22ZM88.6131 19.408C89.3171 19.408 89.7331 19.24 89.8611 18.904C90.0051 18.552 90.0771 18.008 90.0771 17.272V10.384C90.0771 9.92 90.0451 9.592 89.9811 9.4C89.9331 9.192 89.8051 9.072 89.5971 9.04C89.3891 8.992 89.0451 8.968 88.5651 8.968C88.0851 8.968 87.7331 9.008 87.5091 9.088C87.3011 9.152 87.1651 9.288 87.1011 9.496C87.0531 9.688 87.0291 9.984 87.0291 10.384L87.0771 17.392C87.0771 17.936 87.1091 18.352 87.1731 18.64C87.2371 18.928 87.3811 19.128 87.6051 19.24C87.8291 19.352 88.1651 19.408 88.6131 19.408ZM94.1893 22V6.328H96.8533L100.021 13.84L103.237 6.328H105.901V22H103.213V13.288L100.981 18.472H99.0853L96.8773 13.288V22H94.1893Z" fill="#49403E"/>
</svg>
