<svg width="117" height="47" viewBox="0 0 117 47" fill="none" xmlns="http://www.w3.org/2000/svg">
<path d="M5.33668 21.0822C6.33854 21.0822 7.10116 21.4187 7.62453 22.0916C8.14789 22.7495 8.40957 23.729 8.40957 25.0299C8.40957 26.3159 8.05817 27.3327 7.35537 28.0804C6.66752 28.8131 5.71798 29.1794 4.50677 29.1794C4.14789 29.1794 3.77406 29.1421 3.38527 29.0673L3.43013 32.1178H1.232L1.34415 25.7701L1.232 21.329L3.36284 21.1495L3.34041 22.2935H3.47499C4.05817 21.7551 4.67873 21.3514 5.33668 21.0822ZM4.5292 27.7215C5.71051 27.7065 6.30116 26.8991 6.30116 25.2991C6.30116 23.6841 5.80023 22.8841 4.79836 22.8991C4.33481 22.8991 3.84882 23.1383 3.34041 23.6168V25.5682L3.36284 27.4523C3.76658 27.6168 4.15537 27.7065 4.5292 27.7215ZM14.1635 21.172C14.2682 21.1869 14.4103 21.2019 14.5897 21.2168V23.2579L14.3654 23.3477C14.171 23.2729 13.9617 23.2355 13.7374 23.2355C13.0944 23.2355 12.5037 23.6467 11.9654 24.4692V25.5682L12.1 29H9.857L9.96915 25.7701L9.87943 21.329L12.0103 21.1495L11.9878 22.6972H12.1224C12.6607 21.6953 13.3411 21.1869 14.1635 21.172ZM16.8583 17.3589C17.2172 17.3589 17.4938 17.4636 17.6882 17.6729C17.8826 17.8673 17.9798 18.1514 17.9798 18.5252C17.9798 18.8841 17.8751 19.1757 17.6658 19.4C17.4564 19.6243 17.1648 19.7364 16.791 19.7364C16.4321 19.7364 16.148 19.6393 15.9387 19.4449C15.7443 19.2355 15.6471 18.9514 15.6471 18.5925C15.6471 18.2336 15.7592 17.9421 15.9835 17.7178C16.2078 17.4785 16.4994 17.3589 16.8583 17.3589ZM17.9125 29H15.6695L15.7817 25.7701L15.6919 21.329L17.9349 21.1495L17.7779 25.5682L17.9125 29ZM29.3995 24.1327C29.4145 23.3103 29.0631 22.8991 28.3453 22.8991C27.8369 22.8991 27.3061 23.1234 26.7528 23.572L26.7304 25.5682L26.7977 29H24.5771L24.7117 24.1327C24.7117 23.3103 24.3528 22.8991 23.6351 22.8991C23.1266 22.8991 22.5883 23.1234 22.0201 23.572V25.5682L22.1323 29H19.9117L20.0238 25.7701L19.9341 21.329L22.0425 21.1495V22.2935H22.1547C22.7977 21.7252 23.4706 21.3215 24.1734 21.0822C25.4444 21.0822 26.2519 21.5009 26.5958 22.3383H26.6631C27.321 21.7402 28.0537 21.3215 28.8612 21.0822C29.7136 21.0822 30.3565 21.2766 30.7902 21.6654C31.2388 22.0542 31.4556 22.6075 31.4407 23.3252L31.3958 25.5682L31.4855 29H29.265L29.3995 24.1327ZM36.2827 21.0374C37.2846 21.0374 38.0323 21.2318 38.5257 21.6206C39.0192 22.0093 39.2659 22.5477 39.2659 23.2355C39.2659 23.4299 39.2285 24.0654 39.1537 25.1421C39.1537 25.1421 39.1313 25.7551 39.0865 26.9813C39.0865 27.1757 39.1089 27.3103 39.1537 27.385C39.1986 27.4449 39.2883 27.4748 39.4229 27.4748C39.5575 27.4748 39.7145 27.4523 39.8939 27.4075L40.0734 27.5421L39.8491 28.7084C39.4902 28.9327 39.0865 29.0748 38.6379 29.1346C37.9201 29.0748 37.4865 28.6636 37.3369 27.9009H37.2248C36.6565 28.4991 36.0808 28.9178 35.4977 29.157C34.6902 29.1421 34.0547 28.9252 33.5911 28.5065C33.1276 28.0879 32.8958 27.5271 32.8958 26.8243C32.8958 25.7327 33.4715 25.0748 34.6229 24.8505L37.2023 24.3794V23.6841C37.2023 22.9514 36.8584 22.585 36.1706 22.585C35.4827 22.585 34.6752 22.9065 33.7481 23.5495L33.5687 23.4598L33.322 21.9794C34.3089 21.3514 35.2958 21.0374 36.2827 21.0374ZM35.408 25.8822C35.064 25.957 34.8921 26.1664 34.8921 26.5103C34.8921 27.1832 35.1837 27.5196 35.7668 27.5196C36.2005 27.5196 36.664 27.2579 37.1575 26.7346L37.2023 25.4785L35.408 25.8822ZM45.7807 21.172C45.8854 21.1869 46.0275 21.2019 46.2069 21.2168V23.2579L45.9826 23.3477C45.7882 23.2729 45.5789 23.2355 45.3546 23.2355C44.7116 23.2355 44.1209 23.6467 43.5826 24.4692V25.5682L43.7172 29H41.4742L41.5863 25.7701L41.4966 21.329L43.6275 21.1495L43.605 22.6972H43.7396C44.2779 21.6953 44.9583 21.1869 45.7807 21.172ZM50.068 26.7346H50.1801L51.5484 22.585L51.84 21.172H53.7689L51.2344 28.4617C50.8755 29.5234 50.382 30.3308 49.754 30.8841C49.1259 31.4523 48.2362 31.9009 47.0848 32.2299L46.9278 32.2075C46.5241 31.8486 46.1951 31.4 45.9409 30.8617L46.0082 30.6374C47.3091 30.4131 48.3484 29.8673 49.1259 29L46.2549 21.2393L48.4082 21.1271L48.6549 22.3832L50.068 26.7346Z" fill="#3E0C00"/>
<path d="M70 33.5C68.6167 33.5 67.3167 33.2373 66.1 32.712C64.8833 32.1867 63.825 31.4743 62.925 30.575C62.025 29.6757 61.3127 28.6173 60.788 27.4C60.2633 26.1827 60.0007 24.8827 60 23.5C59.9993 22.1173 60.262 20.8173 60.788 19.6C61.314 18.3827 62.0263 17.3243 62.925 16.425C63.8237 15.5257 64.882 14.8133 66.1 14.288C67.318 13.7627 68.618 13.5 70 13.5C71.382 13.5 72.682 13.7627 73.9 14.288C75.118 14.8133 76.1763 15.5257 77.075 16.425C77.9737 17.3243 78.6863 18.3827 79.213 19.6C79.7397 20.8173 80.002 22.1173 80 23.5C79.998 24.8827 79.7353 26.1827 79.212 27.4C78.6887 28.6173 77.9763 29.6757 77.075 30.575C76.1737 31.4743 75.1153 32.187 73.9 32.713C72.6847 33.239 71.3847 33.5013 70 33.5ZM70 31.5C72.2333 31.5 74.125 30.725 75.675 29.175C77.225 27.625 78 25.7333 78 23.5C78 23.3833 77.996 23.2623 77.988 23.137C77.98 23.0117 77.9757 22.9077 77.975 22.825C77.8917 23.3083 77.6667 23.7083 77.3 24.025C76.9333 24.3417 76.5 24.5 76 24.5H74C73.45 24.5 72.9793 24.3043 72.588 23.913C72.1967 23.5217 72.0007 23.0507 72 22.5V21.5H68V19.5C68 18.95 68.196 18.4793 68.588 18.088C68.98 17.6967 69.4507 17.5007 70 17.5H71C71 17.1167 71.1043 16.7793 71.313 16.488C71.5217 16.1967 71.7757 15.959 72.075 15.775C71.7417 15.6917 71.4043 15.625 71.063 15.575C70.7217 15.525 70.3673 15.5 70 15.5C67.7667 15.5 65.875 16.275 64.325 17.825C62.775 19.375 62 21.2667 62 23.5H67C68.1 23.5 69.0417 23.8917 69.825 24.675C70.6083 25.4583 71 26.4 71 27.5V28.5H68V31.25C68.3333 31.3333 68.6627 31.396 68.988 31.438C69.3133 31.48 69.6507 31.5007 70 31.5Z" fill="#1C4445"/>
<path d="M93.7776 26.9813C93.7926 27.1757 93.8225 27.3103 93.8673 27.385C93.9122 27.4449 94.0019 27.4748 94.1365 27.4748C94.2711 27.4748 94.4281 27.4523 94.6075 27.4075L94.7645 27.5421L94.5627 28.7084C94.2038 28.9327 93.7926 29.0748 93.329 29.1346C92.6113 29.0748 92.1552 28.686 91.9608 27.9682H91.8262C91.2879 28.4766 90.7272 28.8579 90.144 29.1121C89.0374 29.1121 88.1851 28.7682 87.587 28.0804C86.9888 27.3776 86.6898 26.3832 86.6898 25.0972C86.6898 23.8112 87.0337 22.8168 87.7216 22.114C88.4244 21.4112 89.3888 21.0598 90.615 21.0598C90.944 21.0598 91.3029 21.0897 91.6916 21.1495L91.6692 17.3813L93.8898 17.2019L93.7328 25.5682L93.7776 26.9813ZM88.7758 24.7383C88.7758 26.4879 89.3066 27.3626 90.3683 27.3626C90.8468 27.3626 91.3029 27.1308 91.7365 26.6673L91.7589 25.7477L91.7141 22.8542C91.2804 22.6598 90.8692 22.5626 90.4804 22.5626C89.344 22.5626 88.7758 23.2879 88.7758 24.7383ZM98.8882 21.0374C99.8901 21.0374 100.638 21.2318 101.131 21.6206C101.625 22.0093 101.871 22.5477 101.871 23.2355C101.871 23.4299 101.834 24.0654 101.759 25.1421C101.759 25.1421 101.737 25.7551 101.692 26.9813C101.692 27.1757 101.714 27.3103 101.759 27.385C101.804 27.4449 101.894 27.4748 102.028 27.4748C102.163 27.4748 102.32 27.4523 102.499 27.4075L102.679 27.5421L102.455 28.7084C102.096 28.9327 101.692 29.0748 101.243 29.1346C100.526 29.0748 100.092 28.6636 99.9424 27.9009H99.8302C99.262 28.4991 98.6863 28.9178 98.1031 29.157C97.2957 29.1421 96.6601 28.9252 96.1966 28.5065C95.733 28.0879 95.5013 27.5271 95.5013 26.8243C95.5013 25.7327 96.077 25.0748 97.2284 24.8505L99.8078 24.3794V23.6841C99.8078 22.9514 99.4639 22.585 98.776 22.585C98.0882 22.585 97.2807 22.9065 96.3536 23.5495L96.1742 23.4598L95.9274 21.9794C96.9144 21.3514 97.9013 21.0374 98.8882 21.0374ZM98.0134 25.8822C97.6695 25.957 97.4975 26.1664 97.4975 26.5103C97.4975 27.1832 97.7891 27.5196 98.3723 27.5196C98.8059 27.5196 99.2695 27.2579 99.763 26.7346L99.8078 25.4785L98.0134 25.8822ZM107.287 27.3402C107.631 27.3402 107.997 27.2505 108.386 27.071L108.566 27.2505L108.341 28.5514C107.788 28.8505 107.212 29.0299 106.614 29.0897C105.104 28.9402 104.341 28.2075 104.326 26.8916L104.416 25.4785V22.585H103.362L103.272 22.4953L103.384 21.2617H104.371V19.9607L106.412 19.3103L106.569 19.4449L106.502 21.2617H108.521L108.588 21.3738L108.498 22.585H106.48L106.39 26.3533C106.39 26.7121 106.45 26.9664 106.569 27.1159C106.704 27.2654 106.943 27.3402 107.287 27.3402ZM112.599 21.0374C113.601 21.0374 114.349 21.2318 114.842 21.6206C115.336 22.0093 115.582 22.5477 115.582 23.2355C115.582 23.4299 115.545 24.0654 115.47 25.1421C115.47 25.1421 115.448 25.7551 115.403 26.9813C115.403 27.1757 115.425 27.3103 115.47 27.385C115.515 27.4449 115.605 27.4748 115.739 27.4748C115.874 27.4748 116.031 27.4523 116.21 27.4075L116.39 27.5421L116.165 28.7084C115.807 28.9327 115.403 29.0748 114.954 29.1346C114.237 29.0748 113.803 28.6636 113.653 27.9009H113.541C112.973 28.4991 112.397 28.9178 111.814 29.157C111.007 29.1421 110.371 28.9252 109.908 28.5065C109.444 28.0879 109.212 27.5271 109.212 26.8243C109.212 25.7327 109.788 25.0748 110.939 24.8505L113.519 24.3794V23.6841C113.519 22.9514 113.175 22.585 112.487 22.585C111.799 22.585 110.992 22.9065 110.065 23.5495L109.885 23.4598L109.638 21.9794C110.625 21.3514 111.612 21.0374 112.599 21.0374ZM111.724 25.8822C111.38 25.957 111.208 26.1664 111.208 26.5103C111.208 27.1832 111.5 27.5196 112.083 27.5196C112.517 27.5196 112.98 27.2579 113.474 26.7346L113.519 25.4785L111.724 25.8822Z" fill="#3E0C00"/>
</svg>
